<svg xmlns="http://www.w3.org/2000/svg" xmlns:xlink="http://www.w3.org/1999/xlink" width="1920" zoomAndPan="magnify" viewBox="0 0 1440 809.999993" height="1080" preserveAspectRatio="xMidYMid meet" version="1.0"><defs><filter x="0%" y="0%" width="100%" height="100%" id="id1"><feColorMatrix values="0 0 0 0 1 0 0 0 0 1 0 0 0 0 1 0 0 0 1 0" color-interpolation-filters="sRGB"/></filter><g/><mask id="id2"><g filter="url(#id1)"><rect x="-144" width="1728" fill="#000000" y="-80.999999" height="971.999992" fill-opacity="0.2392"/></g></mask><clipPath id="id3"><path d="M 117 54 L 189 54 L 189 124.613281 L 117 124.613281 Z M 117 54 " clip-rule="nonzero"/></clipPath><clipPath id="id4"><path d="M 222 1 L 305.742188 1 L 305.742188 84 L 222 84 Z M 222 1 " clip-rule="nonzero"/></clipPath><clipPath id="id5"><path d="M 0.601562 1 L 85 1 L 85 84 L 0.601562 84 Z M 0.601562 1 " clip-rule="nonzero"/></clipPath><clipPath id="id6"><rect x="0" width="306" y="0" height="126"/></clipPath><clipPath id="id7"><path d="M 684 393 L 756 393 L 756 463.476562 L 684 463.476562 Z M 684 393 " clip-rule="nonzero"/></clipPath><clipPath id="id8"><path d="M 789 340 L 872.742188 340 L 872.742188 423 L 789 423 Z M 789 340 " clip-rule="nonzero"/></clipPath><clipPath id="id9"><path d="M 567.492188 339.726562 L 652 339.726562 L 652 423 L 567.492188 423 Z M 567.492188 339.726562 " clip-rule="nonzero"/></clipPath></defs><g mask="url(#id2)"><g transform="matrix(1, 0, 0, 1, 567, 346)"><g clip-path="url(#id6)"><g clip-path="url(#id3)"><path fill="#000000" d="M 188.234375 89.449219 C 188.234375 90.601562 188.175781 91.75 188.0625 92.898438 C 187.949219 94.046875 187.78125 95.183594 187.558594 96.316406 C 187.332031 97.445312 187.054688 98.5625 186.71875 99.664062 C 186.386719 100.769531 186 101.851562 185.558594 102.917969 C 185.117188 103.980469 184.625 105.023438 184.085938 106.039062 C 183.542969 107.054688 182.949219 108.042969 182.3125 109 C 181.671875 109.960938 180.988281 110.882812 180.257812 111.773438 C 179.527344 112.667969 178.753906 113.519531 177.941406 114.335938 C 177.128906 115.148438 176.277344 115.921875 175.386719 116.652344 C 174.496094 117.386719 173.574219 118.070312 172.617188 118.710938 C 171.660156 119.351562 170.675781 119.941406 169.660156 120.488281 C 168.644531 121.03125 167.605469 121.523438 166.542969 121.964844 C 165.480469 122.40625 164.398438 122.792969 163.296875 123.125 C 162.195312 123.460938 161.078125 123.742188 159.949219 123.964844 C 158.824219 124.191406 157.683594 124.359375 156.539062 124.472656 C 155.394531 124.585938 154.246094 124.640625 153.097656 124.640625 C 151.945312 124.640625 150.796875 124.585938 149.652344 124.472656 C 148.507812 124.359375 147.371094 124.191406 146.242188 123.964844 C 145.113281 123.742188 143.996094 123.460938 142.894531 123.125 C 141.796875 122.792969 140.714844 122.40625 139.648438 121.964844 C 138.585938 121.523438 137.546875 121.03125 136.53125 120.488281 C 135.519531 119.941406 134.53125 119.351562 133.574219 118.710938 C 132.617188 118.070312 131.695312 117.386719 130.804688 116.652344 C 129.914062 115.921875 129.0625 115.148438 128.25 114.335938 C 127.4375 113.519531 126.664062 112.667969 125.933594 111.773438 C 125.203125 110.882812 124.519531 109.960938 123.882812 109 C 123.242188 108.042969 122.652344 107.054688 122.109375 106.039062 C 121.566406 105.023438 121.074219 103.980469 120.632812 102.917969 C 120.195312 101.851562 119.804688 100.769531 119.472656 99.664062 C 119.136719 98.5625 118.859375 97.445312 118.632812 96.316406 C 118.410156 95.183594 118.242188 94.046875 118.128906 92.898438 C 118.015625 91.75 117.960938 90.601562 117.960938 89.449219 C 117.960938 88.296875 118.015625 87.148438 118.128906 86 C 118.242188 84.851562 118.410156 83.714844 118.632812 82.582031 C 118.859375 81.453125 119.136719 80.335938 119.472656 79.234375 C 119.804688 78.128906 120.195312 77.046875 120.632812 75.980469 C 121.074219 74.917969 121.566406 73.875 122.109375 72.859375 C 122.652344 71.84375 123.242188 70.855469 123.882812 69.898438 C 124.519531 68.9375 125.203125 68.015625 125.933594 67.121094 C 126.664062 66.230469 127.4375 65.378906 128.25 64.5625 C 129.0625 63.75 129.914062 62.976562 130.804688 62.246094 C 131.695312 61.511719 132.617188 60.828125 133.574219 60.1875 C 134.53125 59.546875 135.519531 58.953125 136.53125 58.410156 C 137.546875 57.867188 138.585938 57.375 139.648438 56.933594 C 140.714844 56.492188 141.796875 56.105469 142.894531 55.769531 C 143.996094 55.4375 145.113281 55.15625 146.242188 54.933594 C 147.371094 54.707031 148.507812 54.539062 149.652344 54.425781 C 150.796875 54.3125 151.945312 54.257812 153.097656 54.257812 C 154.246094 54.257812 155.394531 54.3125 156.539062 54.425781 C 157.683594 54.539062 158.824219 54.707031 159.949219 54.933594 C 161.078125 55.15625 162.195312 55.4375 163.296875 55.769531 C 164.398438 56.105469 165.480469 56.492188 166.542969 56.933594 C 167.605469 57.375 168.644531 57.867188 169.660156 58.410156 C 170.675781 58.953125 171.660156 59.546875 172.617188 60.1875 C 173.574219 60.828125 174.496094 61.511719 175.386719 62.246094 C 176.277344 62.976562 177.128906 63.75 177.941406 64.5625 C 178.753906 65.378906 179.527344 66.230469 180.257812 67.121094 C 180.988281 68.015625 181.671875 68.9375 182.3125 69.898438 C 182.949219 70.855469 183.542969 71.84375 184.085938 72.859375 C 184.625 73.875 185.117188 74.917969 185.558594 75.980469 C 186 77.046875 186.386719 78.128906 186.71875 79.234375 C 187.054688 80.335938 187.332031 81.453125 187.558594 82.582031 C 187.78125 83.714844 187.949219 84.851562 188.0625 86 C 188.175781 87.148438 188.234375 88.296875 188.234375 89.449219 Z M 188.234375 89.449219 " fill-opacity="1" fill-rule="nonzero"/></g><path fill="#000000" d="M 222.34375 90.332031 C 222.34375 90.890625 222.316406 91.449219 222.261719 92.003906 C 222.207031 92.5625 222.125 93.113281 222.015625 93.664062 C 221.90625 94.210938 221.773438 94.753906 221.609375 95.289062 C 221.449219 95.824219 221.261719 96.351562 221.046875 96.867188 C 220.832031 97.382812 220.59375 97.890625 220.332031 98.382812 C 220.066406 98.875 219.78125 99.355469 219.46875 99.820312 C 219.160156 100.285156 218.828125 100.734375 218.472656 101.167969 C 218.117188 101.601562 217.746094 102.015625 217.347656 102.410156 C 216.953125 102.804688 216.539062 103.179688 216.109375 103.535156 C 215.675781 103.890625 215.230469 104.222656 214.765625 104.535156 C 214.300781 104.84375 213.820312 105.132812 213.328125 105.394531 C 212.835938 105.660156 212.332031 105.898438 211.816406 106.113281 C 211.300781 106.328125 210.773438 106.515625 210.238281 106.679688 C 209.707031 106.839844 209.164062 106.976562 208.617188 107.085938 C 208.070312 107.195312 207.515625 107.277344 206.960938 107.332031 C 206.40625 107.386719 205.847656 107.414062 205.289062 107.414062 C 204.730469 107.414062 204.171875 107.386719 203.617188 107.332031 C 203.0625 107.277344 202.507812 107.195312 201.960938 107.085938 C 201.414062 106.976562 200.871094 106.839844 200.335938 106.679688 C 199.804688 106.515625 199.277344 106.328125 198.761719 106.113281 C 198.246094 105.898438 197.742188 105.660156 197.25 105.394531 C 196.757812 105.132812 196.277344 104.84375 195.8125 104.535156 C 195.347656 104.222656 194.902344 103.890625 194.46875 103.535156 C 194.035156 103.179688 193.625 102.804688 193.226562 102.410156 C 192.832031 102.015625 192.457031 101.601562 192.105469 101.167969 C 191.75 100.734375 191.417969 100.285156 191.105469 99.820312 C 190.796875 99.355469 190.511719 98.875 190.246094 98.382812 C 189.984375 97.890625 189.746094 97.382812 189.53125 96.867188 C 189.316406 96.351562 189.128906 95.824219 188.96875 95.289062 C 188.804688 94.753906 188.667969 94.210938 188.5625 93.664062 C 188.453125 93.113281 188.371094 92.5625 188.316406 92.003906 C 188.261719 91.449219 188.234375 90.890625 188.234375 90.332031 C 188.234375 89.769531 188.261719 89.210938 188.316406 88.65625 C 188.371094 88.097656 188.453125 87.546875 188.5625 86.996094 C 188.667969 86.449219 188.804688 85.90625 188.96875 85.371094 C 189.128906 84.835938 189.316406 84.308594 189.53125 83.792969 C 189.746094 83.277344 189.984375 82.769531 190.246094 82.277344 C 190.511719 81.785156 190.796875 81.304688 191.105469 80.839844 C 191.417969 80.375 191.75 79.925781 192.105469 79.492188 C 192.457031 79.058594 192.832031 78.644531 193.226562 78.25 C 193.625 77.855469 194.035156 77.480469 194.46875 77.125 C 194.902344 76.769531 195.347656 76.4375 195.8125 76.125 C 196.277344 75.816406 196.757812 75.527344 197.25 75.265625 C 197.742188 75 198.246094 74.761719 198.761719 74.546875 C 199.277344 74.332031 199.804688 74.144531 200.335938 73.980469 C 200.871094 73.820312 201.414062 73.683594 201.960938 73.574219 C 202.507812 73.464844 203.0625 73.382812 203.617188 73.328125 C 204.171875 73.273438 204.730469 73.246094 205.289062 73.246094 C 205.847656 73.246094 206.40625 73.273438 206.960938 73.328125 C 207.515625 73.382812 208.070312 73.464844 208.617188 73.574219 C 209.164062 73.683594 209.707031 73.820312 210.238281 73.980469 C 210.773438 74.144531 211.300781 74.332031 211.816406 74.546875 C 212.332031 74.761719 212.835938 75 213.328125 75.265625 C 213.820312 75.527344 214.300781 75.816406 214.765625 76.125 C 215.230469 76.4375 215.675781 76.769531 216.109375 77.125 C 216.539062 77.480469 216.953125 77.855469 217.347656 78.25 C 217.746094 78.644531 218.117188 79.058594 218.472656 79.492188 C 218.828125 79.925781 219.160156 80.375 219.46875 80.839844 C 219.78125 81.304688 220.066406 81.785156 220.332031 82.277344 C 220.59375 82.769531 220.832031 83.277344 221.046875 83.792969 C 221.261719 84.308594 221.449219 84.835938 221.609375 85.371094 C 221.773438 85.90625 221.90625 86.449219 222.015625 86.996094 C 222.125 87.546875 222.207031 88.097656 222.261719 88.65625 C 222.316406 89.210938 222.34375 89.769531 222.34375 90.332031 Z M 222.34375 90.332031 " fill-opacity="1" fill-rule="nonzero"/><path fill="#000000" d="M 255.542969 81.132812 C 255.542969 81.691406 255.515625 82.25 255.460938 82.804688 C 255.40625 83.363281 255.328125 83.914062 255.21875 84.464844 C 255.109375 85.011719 254.972656 85.554688 254.808594 86.089844 C 254.648438 86.625 254.460938 87.152344 254.246094 87.667969 C 254.03125 88.1875 253.792969 88.691406 253.53125 89.183594 C 253.269531 89.679688 252.980469 90.15625 252.671875 90.621094 C 252.359375 91.085938 252.027344 91.535156 251.671875 91.96875 C 251.320312 92.402344 250.945312 92.816406 250.550781 93.210938 C 250.15625 93.605469 249.742188 93.980469 249.308594 94.335938 C 248.878906 94.691406 248.429688 95.023438 247.964844 95.335938 C 247.5 95.648438 247.023438 95.933594 246.527344 96.199219 C 246.035156 96.460938 245.53125 96.699219 245.015625 96.914062 C 244.5 97.128906 243.972656 97.316406 243.441406 97.480469 C 242.90625 97.640625 242.363281 97.777344 241.816406 97.886719 C 241.269531 97.996094 240.714844 98.078125 240.160156 98.132812 C 239.605469 98.1875 239.046875 98.214844 238.488281 98.214844 C 237.929688 98.214844 237.375 98.1875 236.816406 98.132812 C 236.261719 98.078125 235.710938 97.996094 235.160156 97.886719 C 234.613281 97.777344 234.074219 97.640625 233.539062 97.480469 C 233.003906 97.316406 232.476562 97.128906 231.960938 96.914062 C 231.445312 96.699219 230.941406 96.460938 230.449219 96.199219 C 229.957031 95.933594 229.476562 95.648438 229.011719 95.335938 C 228.546875 95.023438 228.101562 94.691406 227.667969 94.335938 C 227.238281 93.980469 226.824219 93.605469 226.429688 93.210938 C 226.035156 92.816406 225.660156 92.402344 225.304688 91.96875 C 224.949219 91.535156 224.617188 91.085938 224.308594 90.621094 C 223.996094 90.15625 223.710938 89.679688 223.445312 89.183594 C 223.183594 88.691406 222.945312 88.1875 222.730469 87.667969 C 222.515625 87.152344 222.328125 86.625 222.167969 86.089844 C 222.003906 85.554688 221.871094 85.011719 221.761719 84.464844 C 221.652344 83.914062 221.570312 83.363281 221.515625 82.804688 C 221.460938 82.25 221.433594 81.691406 221.433594 81.132812 C 221.433594 80.570312 221.460938 80.015625 221.515625 79.457031 C 221.570312 78.902344 221.652344 78.347656 221.761719 77.800781 C 221.871094 77.25 222.003906 76.707031 222.167969 76.171875 C 222.328125 75.636719 222.515625 75.109375 222.730469 74.59375 C 222.945312 74.078125 223.183594 73.570312 223.445312 73.078125 C 223.710938 72.585938 223.996094 72.105469 224.308594 71.640625 C 224.617188 71.175781 224.949219 70.726562 225.304688 70.292969 C 225.660156 69.863281 226.035156 69.449219 226.429688 69.050781 C 226.824219 68.65625 227.238281 68.28125 227.667969 67.925781 C 228.101562 67.570312 228.546875 67.238281 229.011719 66.925781 C 229.476562 66.617188 229.957031 66.328125 230.449219 66.066406 C 230.941406 65.800781 231.445312 65.5625 231.960938 65.347656 C 232.476562 65.132812 233.003906 64.945312 233.539062 64.785156 C 234.074219 64.621094 234.613281 64.484375 235.160156 64.375 C 235.710938 64.265625 236.261719 64.183594 236.816406 64.128906 C 237.375 64.074219 237.929688 64.046875 238.488281 64.046875 C 239.046875 64.046875 239.605469 64.074219 240.160156 64.128906 C 240.714844 64.183594 241.269531 64.265625 241.816406 64.375 C 242.363281 64.484375 242.90625 64.621094 243.441406 64.785156 C 243.972656 64.945312 244.5 65.132812 245.015625 65.347656 C 245.53125 65.5625 246.035156 65.800781 246.527344 66.066406 C 247.023438 66.328125 247.5 66.617188 247.964844 66.925781 C 248.429688 67.238281 248.878906 67.570312 249.308594 67.925781 C 249.742188 68.28125 250.15625 68.65625 250.550781 69.050781 C 250.945312 69.449219 251.320312 69.863281 251.671875 70.292969 C 252.027344 70.726562 252.359375 71.175781 252.671875 71.640625 C 252.980469 72.105469 253.269531 72.585938 253.53125 73.078125 C 253.792969 73.570312 254.03125 74.078125 254.246094 74.59375 C 254.460938 75.109375 254.648438 75.636719 254.808594 76.171875 C 254.972656 76.707031 255.109375 77.25 255.21875 77.800781 C 255.324219 78.347656 255.40625 78.902344 255.460938 79.457031 C 255.515625 80.015625 255.542969 80.570312 255.542969 81.132812 Z M 255.542969 81.132812 " fill-opacity="1" fill-rule="nonzero"/><path fill="#000000" d="M 84.757812 81.132812 C 84.757812 81.691406 84.730469 82.25 84.675781 82.804688 C 84.621094 83.363281 84.539062 83.914062 84.429688 84.464844 C 84.324219 85.011719 84.1875 85.554688 84.023438 86.089844 C 83.863281 86.625 83.675781 87.152344 83.460938 87.667969 C 83.246094 88.1875 83.007812 88.691406 82.746094 89.183594 C 82.480469 89.679688 82.195312 90.15625 81.886719 90.621094 C 81.574219 91.085938 81.242188 91.535156 80.886719 91.96875 C 80.535156 92.402344 80.160156 92.816406 79.761719 93.210938 C 79.367188 93.605469 78.957031 93.980469 78.523438 94.335938 C 78.089844 94.691406 77.644531 95.023438 77.179688 95.335938 C 76.714844 95.648438 76.234375 95.933594 75.742188 96.199219 C 75.25 96.460938 74.746094 96.699219 74.230469 96.914062 C 73.714844 97.128906 73.1875 97.316406 72.65625 97.480469 C 72.121094 97.640625 71.578125 97.777344 71.03125 97.886719 C 70.484375 97.996094 69.929688 98.078125 69.375 98.132812 C 68.820312 98.1875 68.261719 98.214844 67.703125 98.214844 C 67.144531 98.214844 66.585938 98.1875 66.03125 98.132812 C 65.476562 98.078125 64.921875 97.996094 64.375 97.886719 C 63.828125 97.777344 63.285156 97.640625 62.753906 97.480469 C 62.21875 97.316406 61.691406 97.128906 61.175781 96.914062 C 60.660156 96.699219 60.15625 96.460938 59.664062 96.199219 C 59.171875 95.933594 58.691406 95.648438 58.226562 95.335938 C 57.761719 95.023438 57.316406 94.691406 56.882812 94.335938 C 56.453125 93.980469 56.039062 93.605469 55.644531 93.210938 C 55.246094 92.816406 54.875 92.402344 54.519531 91.96875 C 54.164062 91.535156 53.832031 91.085938 53.523438 90.621094 C 53.210938 90.15625 52.925781 89.679688 52.660156 89.183594 C 52.398438 88.691406 52.160156 88.1875 51.945312 87.667969 C 51.730469 87.152344 51.542969 86.625 51.382812 86.089844 C 51.21875 85.554688 51.085938 85.011719 50.976562 84.464844 C 50.867188 83.914062 50.785156 83.363281 50.730469 82.804688 C 50.675781 82.25 50.648438 81.691406 50.648438 81.132812 C 50.648438 80.570312 50.675781 80.015625 50.730469 79.457031 C 50.785156 78.902344 50.867188 78.347656 50.976562 77.800781 C 51.085938 77.25 51.21875 76.707031 51.382812 76.171875 C 51.542969 75.636719 51.730469 75.109375 51.945312 74.59375 C 52.160156 74.078125 52.398438 73.570312 52.660156 73.078125 C 52.925781 72.585938 53.210938 72.105469 53.523438 71.640625 C 53.832031 71.175781 54.164062 70.726562 54.519531 70.292969 C 54.875 69.863281 55.246094 69.449219 55.644531 69.050781 C 56.039062 68.65625 56.453125 68.28125 56.882812 67.925781 C 57.316406 67.570312 57.761719 67.238281 58.226562 66.925781 C 58.691406 66.617188 59.171875 66.328125 59.664062 66.066406 C 60.15625 65.800781 60.660156 65.5625 61.175781 65.347656 C 61.691406 65.132812 62.21875 64.945312 62.753906 64.785156 C 63.285156 64.621094 63.828125 64.484375 64.375 64.375 C 64.921875 64.265625 65.476562 64.183594 66.03125 64.128906 C 66.585938 64.074219 67.144531 64.046875 67.703125 64.046875 C 68.261719 64.046875 68.820312 64.074219 69.375 64.128906 C 69.929688 64.183594 70.484375 64.265625 71.03125 64.375 C 71.578125 64.484375 72.121094 64.621094 72.65625 64.785156 C 73.1875 64.945312 73.714844 65.132812 74.230469 65.347656 C 74.746094 65.5625 75.25 65.800781 75.742188 66.066406 C 76.234375 66.328125 76.714844 66.617188 77.179688 66.925781 C 77.644531 67.238281 78.089844 67.570312 78.523438 67.925781 C 78.957031 68.28125 79.367188 68.65625 79.761719 69.050781 C 80.160156 69.449219 80.535156 69.863281 80.886719 70.292969 C 81.242188 70.726562 81.574219 71.175781 81.886719 71.640625 C 82.195312 72.105469 82.480469 72.585938 82.746094 73.078125 C 83.007812 73.570312 83.246094 74.078125 83.460938 74.59375 C 83.675781 75.109375 83.863281 75.636719 84.023438 76.171875 C 84.1875 76.707031 84.324219 77.25 84.429688 77.800781 C 84.539062 78.347656 84.621094 78.902344 84.675781 79.457031 C 84.730469 80.015625 84.757812 80.570312 84.757812 81.132812 Z M 84.757812 81.132812 " fill-opacity="1" fill-rule="nonzero"/><path fill="#000000" d="M 117.964844 90.332031 C 117.964844 90.890625 117.9375 91.449219 117.882812 92.003906 C 117.828125 92.5625 117.746094 93.113281 117.636719 93.664062 C 117.527344 94.210938 117.390625 94.753906 117.230469 95.289062 C 117.066406 95.824219 116.878906 96.351562 116.664062 96.867188 C 116.453125 97.382812 116.210938 97.890625 115.949219 98.382812 C 115.6875 98.875 115.398438 99.355469 115.089844 99.820312 C 114.777344 100.285156 114.445312 100.734375 114.089844 101.167969 C 113.738281 101.601562 113.363281 102.015625 112.96875 102.410156 C 112.574219 102.804688 112.160156 103.179688 111.726562 103.535156 C 111.296875 103.890625 110.847656 104.222656 110.382812 104.535156 C 109.917969 104.84375 109.441406 105.132812 108.949219 105.394531 C 108.453125 105.660156 107.949219 105.898438 107.433594 106.113281 C 106.917969 106.328125 106.394531 106.515625 105.859375 106.679688 C 105.324219 106.839844 104.78125 106.976562 104.234375 107.085938 C 103.6875 107.195312 103.136719 107.277344 102.578125 107.332031 C 102.023438 107.386719 101.464844 107.414062 100.90625 107.414062 C 100.347656 107.414062 99.792969 107.386719 99.234375 107.332031 C 98.679688 107.277344 98.128906 107.195312 97.578125 107.085938 C 97.03125 106.976562 96.492188 106.839844 95.957031 106.679688 C 95.421875 106.515625 94.894531 106.328125 94.378906 106.113281 C 93.863281 105.898438 93.359375 105.660156 92.867188 105.394531 C 92.375 105.132812 91.894531 104.84375 91.429688 104.535156 C 90.96875 104.222656 90.519531 103.890625 90.085938 103.535156 C 89.65625 103.179688 89.242188 102.804688 88.847656 102.410156 C 88.453125 102.015625 88.078125 101.601562 87.722656 101.167969 C 87.367188 100.734375 87.035156 100.285156 86.726562 99.820312 C 86.414062 99.355469 86.128906 98.875 85.867188 98.382812 C 85.601562 97.890625 85.363281 97.382812 85.148438 96.867188 C 84.9375 96.351562 84.746094 95.824219 84.585938 95.289062 C 84.421875 94.753906 84.289062 94.210938 84.179688 93.664062 C 84.070312 93.113281 83.988281 92.5625 83.933594 92.003906 C 83.878906 91.449219 83.851562 90.890625 83.851562 90.332031 C 83.851562 89.769531 83.878906 89.210938 83.933594 88.65625 C 83.988281 88.097656 84.070312 87.546875 84.179688 86.996094 C 84.289062 86.449219 84.421875 85.90625 84.585938 85.371094 C 84.746094 84.835938 84.9375 84.308594 85.148438 83.792969 C 85.363281 83.277344 85.601562 82.769531 85.867188 82.277344 C 86.128906 81.785156 86.414062 81.304688 86.726562 80.839844 C 87.035156 80.375 87.367188 79.925781 87.722656 79.492188 C 88.078125 79.058594 88.453125 78.644531 88.847656 78.25 C 89.242188 77.855469 89.65625 77.480469 90.085938 77.125 C 90.519531 76.769531 90.96875 76.4375 91.429688 76.125 C 91.894531 75.816406 92.375 75.527344 92.867188 75.265625 C 93.359375 75 93.863281 74.761719 94.378906 74.546875 C 94.894531 74.332031 95.421875 74.144531 95.957031 73.980469 C 96.492188 73.820312 97.03125 73.683594 97.578125 73.574219 C 98.128906 73.464844 98.679688 73.382812 99.234375 73.328125 C 99.792969 73.273438 100.347656 73.246094 100.90625 73.246094 C 101.464844 73.246094 102.023438 73.273438 102.578125 73.328125 C 103.136719 73.382812 103.6875 73.464844 104.234375 73.574219 C 104.78125 73.683594 105.324219 73.820312 105.859375 73.980469 C 106.394531 74.144531 106.917969 74.332031 107.433594 74.546875 C 107.949219 74.761719 108.453125 75 108.949219 75.265625 C 109.441406 75.527344 109.917969 75.816406 110.382812 76.125 C 110.847656 76.4375 111.296875 76.769531 111.726562 77.125 C 112.160156 77.480469 112.574219 77.855469 112.96875 78.25 C 113.363281 78.644531 113.738281 79.058594 114.089844 79.492188 C 114.445312 79.925781 114.777344 80.375 115.089844 80.839844 C 115.398438 81.304688 115.6875 81.785156 115.949219 82.277344 C 116.210938 82.769531 116.453125 83.277344 116.664062 83.792969 C 116.878906 84.308594 117.066406 84.835938 117.230469 85.371094 C 117.390625 85.90625 117.527344 86.449219 117.636719 86.996094 C 117.746094 87.546875 117.828125 88.097656 117.882812 88.65625 C 117.9375 89.210938 117.964844 89.769531 117.964844 90.332031 Z M 117.964844 90.332031 " fill-opacity="1" fill-rule="nonzero"/><g clip-path="url(#id4)"><path fill="#000000" d="M 255.160156 83.960938 C 254.824219 83.960938 254.496094 83.902344 254.179688 83.78125 C 253.863281 83.664062 253.578125 83.496094 253.324219 83.277344 C 253.066406 83.054688 252.859375 82.796875 252.695312 82.5 C 252.53125 82.207031 252.425781 81.890625 252.375 81.558594 C 252.324219 81.222656 252.332031 80.890625 252.398438 80.558594 C 252.46875 80.230469 252.59375 79.917969 252.769531 79.632812 C 252.949219 79.347656 253.171875 79.101562 253.4375 78.894531 C 253.707031 78.6875 254 78.53125 254.324219 78.433594 C 267.113281 74.433594 300.214844 60.757812 299.757812 45.695312 C 299.574219 39.859375 294.335938 33.890625 284.175781 27.960938 C 271.488281 20.554688 251.273438 13.414062 224.097656 6.703125 C 223.738281 6.609375 223.414062 6.449219 223.121094 6.222656 C 222.828125 6 222.585938 5.726562 222.398438 5.410156 C 222.210938 5.089844 222.089844 4.75 222.035156 4.382812 C 221.980469 4.015625 222 3.652344 222.089844 3.296875 C 222.175781 2.9375 222.328125 2.605469 222.546875 2.308594 C 222.765625 2.007812 223.03125 1.761719 223.34375 1.566406 C 223.65625 1.371094 223.996094 1.242188 224.359375 1.183594 C 224.726562 1.121094 225.085938 1.128906 225.449219 1.210938 C 278.742188 14.355469 304.894531 28.832031 305.402344 45.535156 C 305.695312 55.214844 297.292969 64.648438 280.425781 73.570312 C 272.566406 77.664062 264.421875 81.085938 256 83.835938 C 255.726562 83.917969 255.449219 83.960938 255.160156 83.960938 Z M 255.160156 83.960938 " fill-opacity="1" fill-rule="nonzero"/></g><g clip-path="url(#id5)"><path fill="#000000" d="M 51.074219 83.960938 C 50.789062 83.960938 50.507812 83.917969 50.230469 83.835938 C 41.808594 81.085938 33.671875 77.664062 25.8125 73.570312 C 8.945312 64.648438 0.539062 55.214844 0.835938 45.535156 C 1.34375 28.832031 27.496094 14.355469 80.789062 1.21875 C 81.15625 1.121094 81.527344 1.097656 81.902344 1.148438 C 82.28125 1.199219 82.632812 1.320312 82.957031 1.515625 C 83.285156 1.707031 83.5625 1.957031 83.789062 2.261719 C 84.015625 2.566406 84.175781 2.90625 84.265625 3.273438 C 84.355469 3.644531 84.371094 4.015625 84.3125 4.390625 C 84.253906 4.769531 84.125 5.117188 83.925781 5.441406 C 83.726562 5.765625 83.46875 6.035156 83.160156 6.257812 C 82.851562 6.476562 82.511719 6.628906 82.140625 6.710938 C 54.964844 13.410156 34.75 20.5625 22.058594 27.96875 C 11.910156 33.898438 6.664062 39.867188 6.480469 45.703125 C 6.019531 60.757812 39.125 74.433594 51.914062 78.441406 C 52.234375 78.542969 52.53125 78.695312 52.796875 78.902344 C 53.0625 79.109375 53.289062 79.355469 53.464844 79.640625 C 53.644531 79.929688 53.769531 80.238281 53.835938 80.566406 C 53.90625 80.898438 53.914062 81.230469 53.863281 81.566406 C 53.8125 81.898438 53.703125 82.214844 53.542969 82.507812 C 53.378906 82.804688 53.167969 83.0625 52.914062 83.285156 C 52.65625 83.503906 52.371094 83.671875 52.054688 83.792969 C 51.738281 83.910156 51.414062 83.96875 51.074219 83.96875 Z M 51.074219 83.960938 " fill-opacity="1" fill-rule="nonzero"/></g></g></g></g><g clip-path="url(#id7)"><path fill="#ff0063" d="M 755.234375 428.3125 C 755.234375 429.464844 755.175781 430.617188 755.0625 431.761719 C 754.949219 432.910156 754.78125 434.046875 754.558594 435.179688 C 754.332031 436.308594 754.054688 437.425781 753.71875 438.527344 C 753.386719 439.632812 753 440.714844 752.558594 441.78125 C 752.117188 442.84375 751.625 443.886719 751.085938 444.902344 C 750.542969 445.917969 749.949219 446.90625 749.3125 447.867188 C 748.671875 448.824219 747.988281 449.75 747.257812 450.640625 C 746.527344 451.53125 745.753906 452.382812 744.941406 453.199219 C 744.128906 454.011719 743.277344 454.785156 742.386719 455.519531 C 741.496094 456.25 740.574219 456.933594 739.617188 457.574219 C 738.660156 458.214844 737.675781 458.808594 736.660156 459.351562 C 735.644531 459.894531 734.605469 460.386719 733.542969 460.828125 C 732.480469 461.269531 731.398438 461.65625 730.296875 461.992188 C 729.195312 462.324219 728.078125 462.605469 726.949219 462.828125 C 725.824219 463.054688 724.683594 463.222656 723.539062 463.335938 C 722.394531 463.449219 721.246094 463.507812 720.097656 463.507812 C 718.945312 463.507812 717.796875 463.449219 716.652344 463.335938 C 715.507812 463.222656 714.371094 463.054688 713.242188 462.828125 C 712.113281 462.605469 710.996094 462.324219 709.894531 461.992188 C 708.796875 461.65625 707.714844 461.269531 706.648438 460.828125 C 705.585938 460.386719 704.546875 459.894531 703.53125 459.351562 C 702.519531 458.808594 701.53125 458.214844 700.574219 457.574219 C 699.617188 456.933594 698.695312 456.25 697.804688 455.519531 C 696.914062 454.785156 696.0625 454.011719 695.25 453.199219 C 694.4375 452.382812 693.664062 451.53125 692.933594 450.640625 C 692.203125 449.75 691.519531 448.824219 690.882812 447.867188 C 690.242188 446.90625 689.652344 445.917969 689.109375 444.902344 C 688.566406 443.886719 688.074219 442.84375 687.632812 441.78125 C 687.195312 440.714844 686.804688 439.632812 686.472656 438.527344 C 686.136719 437.425781 685.859375 436.308594 685.632812 435.179688 C 685.410156 434.046875 685.242188 432.910156 685.128906 431.761719 C 685.015625 430.617188 684.960938 429.464844 684.960938 428.3125 C 684.960938 427.160156 685.015625 426.011719 685.128906 424.863281 C 685.242188 423.714844 685.410156 422.578125 685.632812 421.445312 C 685.859375 420.316406 686.136719 419.199219 686.472656 418.097656 C 686.804688 416.992188 687.195312 415.910156 687.632812 414.84375 C 688.074219 413.78125 688.566406 412.738281 689.109375 411.722656 C 689.652344 410.707031 690.242188 409.71875 690.882812 408.761719 C 691.519531 407.800781 692.203125 406.878906 692.933594 405.988281 C 693.664062 405.09375 694.4375 404.242188 695.25 403.425781 C 696.0625 402.613281 696.914062 401.839844 697.804688 401.109375 C 698.695312 400.378906 699.617188 399.691406 700.574219 399.050781 C 701.53125 398.410156 702.519531 397.820312 703.53125 397.273438 C 704.546875 396.730469 705.585938 396.238281 706.648438 395.796875 C 707.714844 395.359375 708.796875 394.96875 709.894531 394.636719 C 710.996094 394.300781 712.113281 394.019531 713.242188 393.796875 C 714.371094 393.570312 715.507812 393.402344 716.652344 393.289062 C 717.796875 393.175781 718.945312 393.121094 720.097656 393.121094 C 721.246094 393.121094 722.394531 393.175781 723.539062 393.289062 C 724.683594 393.402344 725.824219 393.570312 726.949219 393.796875 C 728.078125 394.019531 729.195312 394.300781 730.296875 394.636719 C 731.398438 394.96875 732.480469 395.359375 733.542969 395.796875 C 734.605469 396.238281 735.644531 396.730469 736.660156 397.273438 C 737.675781 397.820312 738.660156 398.410156 739.617188 399.050781 C 740.574219 399.691406 741.496094 400.378906 742.386719 401.109375 C 743.277344 401.839844 744.128906 402.613281 744.941406 403.425781 C 745.753906 404.242188 746.527344 405.09375 747.257812 405.988281 C 747.988281 406.878906 748.671875 407.800781 749.3125 408.761719 C 749.949219 409.71875 750.542969 410.707031 751.085938 411.722656 C 751.625 412.738281 752.117188 413.78125 752.558594 414.84375 C 753 415.910156 753.386719 416.992188 753.71875 418.097656 C 754.054688 419.199219 754.332031 420.316406 754.558594 421.445312 C 754.78125 422.578125 754.949219 423.714844 755.0625 424.863281 C 755.175781 426.011719 755.234375 427.160156 755.234375 428.3125 Z M 755.234375 428.3125 " fill-opacity="1" fill-rule="nonzero"/></g><path fill="#ff0063" d="M 789.34375 429.195312 C 789.34375 429.753906 789.316406 430.3125 789.261719 430.867188 C 789.207031 431.425781 789.125 431.976562 789.015625 432.527344 C 788.90625 433.074219 788.773438 433.617188 788.609375 434.152344 C 788.449219 434.6875 788.261719 435.214844 788.046875 435.730469 C 787.832031 436.25 787.59375 436.753906 787.332031 437.246094 C 787.066406 437.742188 786.78125 438.21875 786.46875 438.683594 C 786.160156 439.148438 785.828125 439.597656 785.472656 440.03125 C 785.117188 440.464844 784.746094 440.878906 784.347656 441.273438 C 783.953125 441.667969 783.539062 442.042969 783.109375 442.398438 C 782.675781 442.753906 782.230469 443.085938 781.765625 443.398438 C 781.300781 443.710938 780.820312 443.996094 780.328125 444.261719 C 779.835938 444.523438 779.332031 444.761719 778.816406 444.976562 C 778.300781 445.191406 777.773438 445.378906 777.238281 445.542969 C 776.707031 445.703125 776.164062 445.839844 775.617188 445.949219 C 775.070312 446.058594 774.515625 446.140625 773.960938 446.195312 C 773.40625 446.25 772.847656 446.277344 772.289062 446.277344 C 771.730469 446.277344 771.171875 446.25 770.617188 446.195312 C 770.0625 446.140625 769.507812 446.058594 768.960938 445.949219 C 768.414062 445.839844 767.871094 445.703125 767.335938 445.542969 C 766.804688 445.378906 766.277344 445.191406 765.761719 444.976562 C 765.246094 444.761719 764.742188 444.523438 764.25 444.261719 C 763.757812 443.996094 763.277344 443.710938 762.8125 443.398438 C 762.347656 443.085938 761.902344 442.753906 761.46875 442.398438 C 761.035156 442.042969 760.625 441.667969 760.226562 441.273438 C 759.832031 440.878906 759.457031 440.464844 759.105469 440.03125 C 758.75 439.597656 758.417969 439.148438 758.105469 438.683594 C 757.796875 438.21875 757.511719 437.742188 757.246094 437.246094 C 756.984375 436.753906 756.746094 436.25 756.53125 435.730469 C 756.316406 435.214844 756.128906 434.6875 755.96875 434.152344 C 755.804688 433.617188 755.667969 433.074219 755.5625 432.527344 C 755.453125 431.976562 755.371094 431.425781 755.316406 430.867188 C 755.261719 430.3125 755.234375 429.753906 755.234375 429.195312 C 755.234375 428.632812 755.261719 428.078125 755.316406 427.519531 C 755.371094 426.960938 755.453125 426.410156 755.5625 425.859375 C 755.667969 425.3125 755.804688 424.769531 755.96875 424.234375 C 756.128906 423.699219 756.316406 423.171875 756.53125 422.65625 C 756.746094 422.140625 756.984375 421.632812 757.246094 421.140625 C 757.511719 420.648438 757.796875 420.167969 758.105469 419.703125 C 758.417969 419.238281 758.75 418.789062 759.105469 418.355469 C 759.457031 417.925781 759.832031 417.511719 760.226562 417.113281 C 760.625 416.71875 761.035156 416.34375 761.46875 415.988281 C 761.902344 415.632812 762.347656 415.300781 762.8125 414.988281 C 763.277344 414.679688 763.757812 414.390625 764.25 414.128906 C 764.742188 413.863281 765.246094 413.625 765.761719 413.410156 C 766.277344 413.195312 766.804688 413.007812 767.335938 412.847656 C 767.871094 412.683594 768.414062 412.546875 768.960938 412.4375 C 769.507812 412.328125 770.0625 412.246094 770.617188 412.191406 C 771.171875 412.136719 771.730469 412.109375 772.289062 412.109375 C 772.847656 412.109375 773.40625 412.136719 773.960938 412.191406 C 774.515625 412.246094 775.070312 412.328125 775.617188 412.4375 C 776.164062 412.546875 776.707031 412.683594 777.238281 412.847656 C 777.773438 413.007812 778.300781 413.195312 778.816406 413.410156 C 779.332031 413.625 779.835938 413.863281 780.328125 414.128906 C 780.820312 414.390625 781.300781 414.679688 781.765625 414.988281 C 782.230469 415.300781 782.675781 415.632812 783.109375 415.988281 C 783.539062 416.34375 783.953125 416.71875 784.347656 417.113281 C 784.746094 417.511719 785.117188 417.925781 785.472656 418.355469 C 785.828125 418.789062 786.160156 419.238281 786.46875 419.703125 C 786.78125 420.167969 787.066406 420.648438 787.332031 421.140625 C 787.59375 421.632812 787.832031 422.140625 788.046875 422.65625 C 788.261719 423.171875 788.449219 423.699219 788.609375 424.234375 C 788.773438 424.769531 788.90625 425.3125 789.015625 425.859375 C 789.125 426.410156 789.207031 426.960938 789.261719 427.519531 C 789.316406 428.078125 789.34375 428.632812 789.34375 429.195312 Z M 789.34375 429.195312 " fill-opacity="1" fill-rule="nonzero"/><path fill="#ff0063" d="M 822.542969 419.996094 C 822.542969 420.554688 822.515625 421.113281 822.460938 421.671875 C 822.40625 422.226562 822.324219 422.78125 822.21875 423.328125 C 822.109375 423.878906 821.972656 424.417969 821.808594 424.953125 C 821.648438 425.488281 821.460938 426.015625 821.246094 426.53125 C 821.03125 427.050781 820.792969 427.554688 820.53125 428.046875 C 820.269531 428.542969 819.980469 429.019531 819.671875 429.488281 C 819.359375 429.953125 819.027344 430.402344 818.671875 430.832031 C 818.320312 431.265625 817.945312 431.679688 817.550781 432.074219 C 817.15625 432.472656 816.742188 432.847656 816.308594 433.203125 C 815.878906 433.554688 815.429688 433.890625 814.964844 434.199219 C 814.5 434.511719 814.023438 434.796875 813.527344 435.0625 C 813.035156 435.324219 812.53125 435.5625 812.015625 435.777344 C 811.5 435.992188 810.972656 436.179688 810.441406 436.34375 C 809.90625 436.503906 809.363281 436.640625 808.816406 436.75 C 808.269531 436.859375 807.714844 436.941406 807.160156 436.996094 C 806.605469 437.050781 806.046875 437.078125 805.488281 437.078125 C 804.929688 437.078125 804.375 437.050781 803.816406 436.996094 C 803.261719 436.941406 802.710938 436.859375 802.160156 436.75 C 801.613281 436.640625 801.074219 436.503906 800.539062 436.34375 C 800.003906 436.179688 799.476562 435.992188 798.960938 435.777344 C 798.445312 435.5625 797.941406 435.324219 797.449219 435.0625 C 796.957031 434.796875 796.476562 434.511719 796.011719 434.199219 C 795.546875 433.890625 795.101562 433.554688 794.667969 433.203125 C 794.238281 432.847656 793.824219 432.472656 793.429688 432.074219 C 793.035156 431.679688 792.660156 431.265625 792.304688 430.832031 C 791.949219 430.402344 791.617188 429.953125 791.308594 429.488281 C 790.996094 429.019531 790.710938 428.542969 790.445312 428.046875 C 790.183594 427.554688 789.945312 427.050781 789.730469 426.53125 C 789.515625 426.015625 789.328125 425.488281 789.167969 424.953125 C 789.003906 424.417969 788.871094 423.878906 788.761719 423.328125 C 788.652344 422.78125 788.570312 422.226562 788.515625 421.671875 C 788.460938 421.113281 788.433594 420.554688 788.433594 419.996094 C 788.433594 419.4375 788.460938 418.878906 788.515625 418.320312 C 788.570312 417.765625 788.652344 417.210938 788.761719 416.664062 C 788.871094 416.113281 789.003906 415.570312 789.167969 415.035156 C 789.328125 414.5 789.515625 413.976562 789.730469 413.457031 C 789.945312 412.941406 790.183594 412.4375 790.445312 411.941406 C 790.710938 411.449219 790.996094 410.96875 791.308594 410.503906 C 791.617188 410.039062 791.949219 409.589844 792.304688 409.15625 C 792.660156 408.726562 793.035156 408.3125 793.429688 407.914062 C 793.824219 407.519531 794.238281 407.144531 794.667969 406.789062 C 795.101562 406.433594 795.546875 406.101562 796.011719 405.792969 C 796.476562 405.480469 796.957031 405.191406 797.449219 404.929688 C 797.941406 404.664062 798.445312 404.425781 798.960938 404.210938 C 799.476562 404 800.003906 403.808594 800.539062 403.648438 C 801.074219 403.484375 801.613281 403.351562 802.160156 403.242188 C 802.710938 403.132812 803.261719 403.050781 803.816406 402.996094 C 804.375 402.941406 804.929688 402.914062 805.488281 402.914062 C 806.046875 402.914062 806.605469 402.941406 807.160156 402.996094 C 807.714844 403.050781 808.269531 403.132812 808.816406 403.242188 C 809.363281 403.351562 809.90625 403.484375 810.441406 403.648438 C 810.972656 403.808594 811.5 404 812.015625 404.210938 C 812.53125 404.425781 813.035156 404.664062 813.527344 404.929688 C 814.023438 405.191406 814.5 405.480469 814.964844 405.792969 C 815.429688 406.101562 815.878906 406.433594 816.308594 406.789062 C 816.742188 407.144531 817.15625 407.519531 817.550781 407.914062 C 817.945312 408.3125 818.320312 408.726562 818.671875 409.15625 C 819.027344 409.589844 819.359375 410.039062 819.671875 410.503906 C 819.980469 410.96875 820.269531 411.449219 820.53125 411.941406 C 820.792969 412.4375 821.03125 412.941406 821.246094 413.457031 C 821.460938 413.976562 821.648438 414.5 821.808594 415.035156 C 821.972656 415.570312 822.109375 416.113281 822.21875 416.664062 C 822.324219 417.210938 822.40625 417.765625 822.460938 418.320312 C 822.515625 418.878906 822.542969 419.4375 822.542969 419.996094 Z M 822.542969 419.996094 " fill-opacity="1" fill-rule="nonzero"/><path fill="#ff0063" d="M 651.757812 419.996094 C 651.757812 420.554688 651.730469 421.113281 651.675781 421.671875 C 651.621094 422.226562 651.539062 422.78125 651.429688 423.328125 C 651.324219 423.878906 651.1875 424.417969 651.023438 424.953125 C 650.863281 425.488281 650.675781 426.015625 650.460938 426.53125 C 650.246094 427.050781 650.007812 427.554688 649.746094 428.046875 C 649.480469 428.542969 649.195312 429.019531 648.886719 429.488281 C 648.574219 429.953125 648.242188 430.402344 647.886719 430.832031 C 647.535156 431.265625 647.160156 431.679688 646.761719 432.074219 C 646.367188 432.472656 645.957031 432.847656 645.523438 433.203125 C 645.089844 433.554688 644.644531 433.890625 644.179688 434.199219 C 643.714844 434.511719 643.234375 434.796875 642.742188 435.0625 C 642.25 435.324219 641.746094 435.5625 641.230469 435.777344 C 640.714844 435.992188 640.1875 436.179688 639.65625 436.34375 C 639.121094 436.503906 638.578125 436.640625 638.03125 436.75 C 637.484375 436.859375 636.929688 436.941406 636.375 436.996094 C 635.820312 437.050781 635.261719 437.078125 634.703125 437.078125 C 634.144531 437.078125 633.585938 437.050781 633.03125 436.996094 C 632.476562 436.941406 631.921875 436.859375 631.375 436.75 C 630.828125 436.640625 630.285156 436.503906 629.753906 436.34375 C 629.21875 436.179688 628.691406 435.992188 628.175781 435.777344 C 627.660156 435.5625 627.15625 435.324219 626.664062 435.0625 C 626.171875 434.796875 625.691406 434.511719 625.226562 434.199219 C 624.761719 433.890625 624.316406 433.554688 623.882812 433.203125 C 623.453125 432.847656 623.039062 432.472656 622.644531 432.074219 C 622.246094 431.679688 621.875 431.265625 621.519531 430.832031 C 621.164062 430.402344 620.832031 429.953125 620.523438 429.488281 C 620.210938 429.019531 619.925781 428.542969 619.660156 428.046875 C 619.398438 427.554688 619.160156 427.050781 618.945312 426.53125 C 618.730469 426.015625 618.542969 425.488281 618.382812 424.953125 C 618.21875 424.417969 618.085938 423.878906 617.976562 423.328125 C 617.867188 422.78125 617.785156 422.226562 617.730469 421.671875 C 617.675781 421.113281 617.648438 420.554688 617.648438 419.996094 C 617.648438 419.4375 617.675781 418.878906 617.730469 418.320312 C 617.785156 417.765625 617.867188 417.210938 617.976562 416.664062 C 618.085938 416.113281 618.21875 415.570312 618.382812 415.035156 C 618.542969 414.5 618.730469 413.976562 618.945312 413.457031 C 619.160156 412.941406 619.398438 412.4375 619.660156 411.941406 C 619.925781 411.449219 620.210938 410.96875 620.523438 410.503906 C 620.832031 410.039062 621.164062 409.589844 621.519531 409.15625 C 621.875 408.726562 622.246094 408.3125 622.644531 407.914062 C 623.039062 407.519531 623.453125 407.144531 623.882812 406.789062 C 624.316406 406.433594 624.761719 406.101562 625.226562 405.792969 C 625.691406 405.480469 626.171875 405.191406 626.664062 404.929688 C 627.15625 404.664062 627.660156 404.425781 628.175781 404.210938 C 628.691406 404 629.21875 403.808594 629.753906 403.648438 C 630.285156 403.484375 630.828125 403.351562 631.375 403.242188 C 631.921875 403.132812 632.476562 403.050781 633.03125 402.996094 C 633.585938 402.941406 634.144531 402.914062 634.703125 402.914062 C 635.261719 402.914062 635.820312 402.941406 636.375 402.996094 C 636.929688 403.050781 637.484375 403.132812 638.03125 403.242188 C 638.578125 403.351562 639.121094 403.484375 639.65625 403.648438 C 640.1875 403.808594 640.714844 404 641.230469 404.210938 C 641.746094 404.425781 642.25 404.664062 642.742188 404.929688 C 643.234375 405.191406 643.714844 405.480469 644.179688 405.792969 C 644.644531 406.101562 645.089844 406.433594 645.523438 406.789062 C 645.957031 407.144531 646.367188 407.519531 646.761719 407.914062 C 647.160156 408.3125 647.535156 408.726562 647.886719 409.15625 C 648.242188 409.589844 648.574219 410.039062 648.882812 410.503906 C 649.195312 410.96875 649.480469 411.449219 649.746094 411.941406 C 650.007812 412.4375 650.246094 412.941406 650.460938 413.457031 C 650.675781 413.976562 650.863281 414.5 651.023438 415.035156 C 651.1875 415.570312 651.324219 416.113281 651.429688 416.664062 C 651.539062 417.210938 651.621094 417.765625 651.675781 418.320312 C 651.730469 418.878906 651.757812 419.4375 651.757812 419.996094 Z M 651.757812 419.996094 " fill-opacity="1" fill-rule="nonzero"/><path fill="#ff0063" d="M 684.964844 429.195312 C 684.964844 429.753906 684.9375 430.3125 684.882812 430.867188 C 684.828125 431.425781 684.746094 431.976562 684.636719 432.527344 C 684.527344 433.074219 684.390625 433.617188 684.230469 434.152344 C 684.066406 434.6875 683.878906 435.214844 683.664062 435.730469 C 683.453125 436.25 683.210938 436.753906 682.949219 437.246094 C 682.6875 437.742188 682.398438 438.21875 682.089844 438.683594 C 681.777344 439.148438 681.445312 439.597656 681.089844 440.03125 C 680.738281 440.464844 680.363281 440.878906 679.96875 441.273438 C 679.574219 441.667969 679.160156 442.042969 678.726562 442.398438 C 678.296875 442.753906 677.847656 443.085938 677.382812 443.398438 C 676.917969 443.710938 676.441406 443.996094 675.949219 444.261719 C 675.453125 444.523438 674.949219 444.761719 674.433594 444.976562 C 673.917969 445.191406 673.394531 445.378906 672.859375 445.542969 C 672.324219 445.703125 671.78125 445.839844 671.234375 445.949219 C 670.6875 446.058594 670.136719 446.140625 669.578125 446.195312 C 669.023438 446.25 668.464844 446.277344 667.90625 446.277344 C 667.347656 446.277344 666.792969 446.25 666.234375 446.195312 C 665.679688 446.140625 665.128906 446.058594 664.578125 445.949219 C 664.03125 445.839844 663.492188 445.703125 662.957031 445.542969 C 662.421875 445.378906 661.894531 445.191406 661.378906 444.976562 C 660.863281 444.761719 660.359375 444.523438 659.867188 444.261719 C 659.375 443.996094 658.894531 443.710938 658.429688 443.398438 C 657.96875 443.085938 657.519531 442.753906 657.085938 442.398438 C 656.65625 442.042969 656.242188 441.667969 655.847656 441.273438 C 655.453125 440.878906 655.078125 440.464844 654.722656 440.03125 C 654.367188 439.597656 654.035156 439.148438 653.726562 438.683594 C 653.414062 438.21875 653.128906 437.742188 652.867188 437.246094 C 652.601562 436.753906 652.363281 436.25 652.148438 435.730469 C 651.9375 435.214844 651.746094 434.6875 651.585938 434.152344 C 651.421875 433.617188 651.289062 433.074219 651.179688 432.527344 C 651.070312 431.976562 650.988281 431.425781 650.933594 430.867188 C 650.878906 430.3125 650.851562 429.753906 650.851562 429.195312 C 650.851562 428.632812 650.878906 428.078125 650.933594 427.519531 C 650.988281 426.960938 651.070312 426.410156 651.179688 425.859375 C 651.289062 425.3125 651.421875 424.769531 651.585938 424.234375 C 651.746094 423.699219 651.9375 423.171875 652.148438 422.65625 C 652.363281 422.140625 652.601562 421.632812 652.867188 421.140625 C 653.128906 420.648438 653.414062 420.167969 653.726562 419.703125 C 654.035156 419.238281 654.367188 418.789062 654.722656 418.355469 C 655.078125 417.925781 655.453125 417.511719 655.847656 417.113281 C 656.242188 416.71875 656.65625 416.34375 657.085938 415.988281 C 657.519531 415.632812 657.96875 415.300781 658.429688 414.988281 C 658.894531 414.679688 659.375 414.390625 659.867188 414.128906 C 660.359375 413.863281 660.863281 413.625 661.378906 413.410156 C 661.894531 413.195312 662.421875 413.007812 662.957031 412.847656 C 663.492188 412.683594 664.03125 412.546875 664.578125 412.4375 C 665.128906 412.328125 665.679688 412.246094 666.234375 412.191406 C 666.792969 412.136719 667.347656 412.109375 667.90625 412.109375 C 668.464844 412.109375 669.023438 412.136719 669.578125 412.191406 C 670.136719 412.246094 670.6875 412.328125 671.234375 412.4375 C 671.78125 412.546875 672.324219 412.683594 672.859375 412.847656 C 673.394531 413.007812 673.917969 413.195312 674.433594 413.410156 C 674.949219 413.625 675.453125 413.863281 675.949219 414.128906 C 676.441406 414.390625 676.917969 414.679688 677.382812 414.988281 C 677.847656 415.300781 678.296875 415.632812 678.726562 415.988281 C 679.160156 416.34375 679.574219 416.71875 679.96875 417.113281 C 680.363281 417.511719 680.738281 417.925781 681.089844 418.355469 C 681.445312 418.789062 681.777344 419.238281 682.089844 419.703125 C 682.398438 420.167969 682.6875 420.648438 682.949219 421.140625 C 683.210938 421.632812 683.453125 422.140625 683.664062 422.65625 C 683.878906 423.171875 684.066406 423.699219 684.230469 424.234375 C 684.390625 424.769531 684.527344 425.3125 684.636719 425.859375 C 684.746094 426.410156 684.828125 426.960938 684.882812 427.519531 C 684.9375 428.078125 684.964844 428.632812 684.964844 429.195312 Z M 684.964844 429.195312 " fill-opacity="1" fill-rule="nonzero"/><g clip-path="url(#id8)"><path fill="#ff0063" d="M 822.160156 422.824219 C 821.824219 422.824219 821.496094 422.765625 821.179688 422.648438 C 820.863281 422.527344 820.578125 422.359375 820.324219 422.140625 C 820.066406 421.917969 819.859375 421.660156 819.695312 421.367188 C 819.53125 421.070312 819.425781 420.753906 819.375 420.421875 C 819.324219 420.085938 819.332031 419.753906 819.398438 419.421875 C 819.46875 419.09375 819.59375 418.785156 819.769531 418.496094 C 819.949219 418.210938 820.171875 417.964844 820.4375 417.757812 C 820.707031 417.550781 821 417.398438 821.324219 417.296875 C 834.113281 413.300781 867.214844 399.621094 866.757812 384.558594 C 866.574219 378.722656 861.335938 372.753906 851.175781 366.824219 C 838.488281 359.417969 818.273438 352.277344 791.097656 345.566406 C 790.738281 345.472656 790.414062 345.3125 790.121094 345.085938 C 789.828125 344.863281 789.585938 344.59375 789.398438 344.273438 C 789.210938 343.953125 789.089844 343.613281 789.035156 343.246094 C 788.980469 342.878906 789 342.519531 789.089844 342.160156 C 789.175781 341.800781 789.328125 341.46875 789.546875 341.171875 C 789.765625 340.871094 790.03125 340.625 790.34375 340.429688 C 790.65625 340.234375 790.996094 340.109375 791.359375 340.046875 C 791.726562 339.984375 792.085938 339.996094 792.449219 340.074219 C 845.742188 353.21875 871.894531 367.695312 872.402344 384.398438 C 872.695312 394.078125 864.292969 403.511719 847.425781 412.433594 C 839.566406 416.527344 831.421875 419.949219 823 422.699219 C 822.726562 422.78125 822.449219 422.824219 822.160156 422.824219 Z M 822.160156 422.824219 " fill-opacity="1" fill-rule="nonzero"/></g><g clip-path="url(#id9)"><path fill="#ff0063" d="M 618.074219 422.824219 C 617.789062 422.824219 617.507812 422.78125 617.230469 422.699219 C 608.808594 419.949219 600.671875 416.527344 592.8125 412.433594 C 575.945312 403.511719 567.539062 394.078125 567.835938 384.398438 C 568.34375 367.695312 594.496094 353.21875 647.789062 340.082031 C 648.15625 339.984375 648.527344 339.960938 648.902344 340.011719 C 649.28125 340.0625 649.632812 340.183594 649.957031 340.378906 C 650.285156 340.570312 650.5625 340.820312 650.789062 341.125 C 651.015625 341.429688 651.175781 341.769531 651.265625 342.136719 C 651.355469 342.507812 651.371094 342.878906 651.3125 343.253906 C 651.253906 343.632812 651.125 343.980469 650.925781 344.304688 C 650.726562 344.628906 650.46875 344.898438 650.160156 345.121094 C 649.851562 345.339844 649.511719 345.492188 649.140625 345.574219 C 621.964844 352.273438 601.75 359.425781 589.058594 366.835938 C 578.910156 372.761719 573.664062 378.730469 573.480469 384.566406 C 573.019531 399.621094 606.125 413.300781 618.914062 417.304688 C 619.234375 417.40625 619.53125 417.558594 619.796875 417.765625 C 620.0625 417.972656 620.289062 418.21875 620.464844 418.503906 C 620.644531 418.792969 620.769531 419.101562 620.835938 419.429688 C 620.90625 419.761719 620.914062 420.09375 620.863281 420.429688 C 620.8125 420.761719 620.703125 421.078125 620.542969 421.375 C 620.378906 421.667969 620.167969 421.925781 619.914062 422.148438 C 619.65625 422.367188 619.371094 422.539062 619.054688 422.65625 C 618.738281 422.773438 618.414062 422.832031 618.074219 422.832031 Z M 618.074219 422.824219 " fill-opacity="1" fill-rule="nonzero"/></g><g fill="#000000" fill-opacity="0.4"><g transform="translate(608.157344, 392.966103)"><g><path d="M 12.273438 -26.996094 C 5.863281 -26.996094 2.699219 -26.234375 2.699219 -26.234375 C 2.699219 -26.234375 2.953125 -25.601562 2.953125 -24 L 2.953125 -1.601562 C 2.953125 -0.167969 3.839844 0.335938 5.484375 0.335938 C 6.75 0.335938 7.382812 -0.0429688 7.382812 -0.0429688 C 7.382812 -0.0429688 7.128906 -0.464844 7.128906 -1.941406 L 7.128906 -10.335938 C 8.605469 -10.082031 10.714844 -9.828125 12.992188 -9.828125 C 19.65625 -9.828125 22.863281 -12.863281 22.863281 -18.558594 C 22.863281 -24.042969 19.742188 -26.996094 12.273438 -26.996094 Z M 11.9375 -12.949219 C 10.082031 -12.949219 8.226562 -13.246094 7.128906 -13.457031 L 7.128906 -23.621094 C 8.308594 -23.746094 10.125 -23.875 12.0625 -23.875 C 16.578125 -23.875 18.6875 -22.269531 18.6875 -18.558594 C 18.6875 -15.015625 16.789062 -12.949219 11.9375 -12.949219 Z M 11.9375 -12.949219 "/></g></g></g><g fill="#000000" fill-opacity="0.4"><g transform="translate(632.492758, 392.966103)"><g/></g></g><g fill="#000000" fill-opacity="0.4"><g transform="translate(643.838041, 392.966103)"><g><path d="M 22.398438 -3.839844 C 22.398438 -3.839844 21.132812 -3.121094 17.503906 -3.121094 L 7.253906 -3.121094 L 7.253906 -11.851562 L 17.546875 -11.851562 C 18.644531 -11.851562 19.148438 -12.570312 19.148438 -13.792969 C 19.148438 -14.59375 18.898438 -14.804688 18.898438 -14.804688 L 7.253906 -14.804688 L 7.253906 -23.535156 L 21.175781 -23.535156 C 22.398438 -23.535156 22.945312 -24.210938 22.945312 -25.476562 C 22.945312 -26.53125 22.691406 -26.910156 22.691406 -26.910156 C 22.691406 -26.910156 22.019531 -26.617188 20.792969 -26.617188 L 2.699219 -26.617188 C 2.699219 -26.617188 3.078125 -25.519531 3.078125 -23.875 L 3.078125 -2.445312 C 3.078125 -0.886719 3.878906 0 5.566406 0 L 20.625 0 C 22.101562 0 22.945312 -0.675781 22.945312 -2.234375 C 22.945312 -3.375 22.398438 -3.839844 22.398438 -3.839844 Z M 22.398438 -3.839844 "/></g></g></g><g fill="#000000" fill-opacity="0.4"><g transform="translate(668.806095, 392.966103)"><g/></g></g><g fill="#000000" fill-opacity="0.4"><g transform="translate(680.151378, 392.966103)"><g><path d="M 20.371094 -8.4375 C 19.488281 -9.996094 18.433594 -10.925781 17.167969 -11.472656 C 20.964844 -12.359375 22.820312 -14.761719 22.820312 -18.898438 C 22.820312 -24.210938 19.699219 -26.996094 12.230469 -26.996094 C 5.863281 -26.996094 2.699219 -26.234375 2.699219 -26.234375 C 2.699219 -26.234375 2.953125 -25.5625 2.953125 -24 L 2.953125 -1.5625 C 2.953125 -0.167969 3.839844 0.335938 5.527344 0.335938 C 6.75 0.335938 7.382812 -0.0429688 7.382812 -0.0429688 C 7.382812 -0.0429688 7.128906 -0.464844 7.128906 -1.941406 L 7.128906 -10.25 L 10.164062 -10.25 C 13.074219 -10.25 14.972656 -9.574219 16.367188 -7.253906 L 19.949219 -0.96875 C 20.457031 -0.125 21.46875 0.335938 23.03125 0.335938 C 24.929688 0.335938 25.6875 -0.0429688 25.6875 -0.0429688 C 25.6875 -0.0429688 24.929688 -0.546875 24.210938 -1.8125 Z M 18.644531 -18.558594 C 18.644531 -15.015625 16.703125 -13.328125 11.980469 -13.328125 L 7.128906 -13.328125 L 7.128906 -23.578125 C 8.351562 -23.707031 10.082031 -23.875 12.019531 -23.875 C 16.535156 -23.875 18.644531 -22.269531 18.644531 -18.558594 Z M 18.644531 -18.558594 "/></g></g></g><g fill="#000000" fill-opacity="0.4"><g transform="translate(705.794245, 392.966103)"><g/></g></g><g fill="#000000" fill-opacity="0.4"><g transform="translate(717.139528, 392.966103)"><g><path d="M 22.3125 -3.585938 C 22.3125 -3.585938 21.214844 -3.121094 17.714844 -3.121094 L 7.128906 -3.121094 L 7.128906 -25.054688 C 7.128906 -26.445312 6.242188 -26.996094 4.597656 -26.996094 C 3.375 -26.996094 2.699219 -26.574219 2.699219 -26.574219 C 2.699219 -26.574219 2.953125 -26.195312 2.953125 -24.71875 L 2.953125 -1.8125 C 2.953125 -0.71875 3.5 0 4.765625 0 L 20.710938 0 C 22.101562 0 22.863281 -0.589844 22.863281 -1.984375 C 22.863281 -3.121094 22.3125 -3.585938 22.3125 -3.585938 Z M 22.3125 -3.585938 "/></g></g></g><g fill="#000000" fill-opacity="0.4"><g transform="translate(740.420552, 392.966103)"><g/></g></g><g fill="#000000" fill-opacity="0.4"><g transform="translate(751.765835, 392.966103)"><g><path d="M 5.484375 0.335938 C 6.75 0.335938 7.382812 -0.0429688 7.382812 -0.0429688 C 7.382812 -0.0429688 7.128906 -0.464844 7.128906 -1.941406 L 7.128906 -25.054688 C 7.128906 -26.445312 6.242188 -26.996094 4.597656 -26.996094 C 3.332031 -26.996094 2.699219 -26.574219 2.699219 -26.574219 C 2.699219 -26.574219 2.953125 -26.195312 2.953125 -24.71875 L 2.953125 -1.601562 C 2.953125 -0.167969 3.839844 0.335938 5.484375 0.335938 Z M 5.484375 0.335938 "/></g></g></g><g fill="#000000" fill-opacity="0.4"><g transform="translate(761.845848, 392.966103)"><g/></g></g><g fill="#000000" fill-opacity="0.4"><g transform="translate(773.191131, 392.966103)"><g><path d="M 24.71875 -25.054688 C 24.71875 -26.40625 23.875 -26.996094 22.1875 -26.996094 C 20.921875 -26.996094 20.289062 -26.574219 20.289062 -26.574219 C 20.289062 -26.574219 20.542969 -26.195312 20.542969 -24.71875 L 20.542969 -6.410156 L 6.875 -26.109375 C 6.453125 -26.742188 5.777344 -26.996094 4.597656 -26.996094 C 3.332031 -26.996094 2.699219 -26.574219 2.699219 -26.574219 C 2.699219 -26.574219 2.953125 -26.195312 2.953125 -24.71875 L 2.953125 -1.5625 C 2.953125 -0.167969 3.839844 0.335938 5.484375 0.335938 C 6.75 0.335938 7.382812 -0.0429688 7.382812 -0.0429688 C 7.382812 -0.0429688 7.128906 -0.464844 7.128906 -1.941406 L 7.128906 -20.246094 L 20.835938 -0.546875 C 21.214844 0.0859375 21.933594 0.335938 23.113281 0.335938 C 24.335938 0.335938 25.011719 -0.0429688 25.011719 -0.0429688 C 25.011719 -0.0429688 24.71875 -0.464844 24.71875 -1.941406 Z M 24.71875 -25.054688 "/></g></g></g><g fill="#000000" fill-opacity="0.4"><g transform="translate(800.900606, 392.966103)"><g/></g></g><g fill="#000000" fill-opacity="0.4"><g transform="translate(812.245889, 392.966103)"><g><path d="M 22.398438 -3.839844 C 22.398438 -3.839844 21.132812 -3.121094 17.503906 -3.121094 L 7.253906 -3.121094 L 7.253906 -11.851562 L 17.546875 -11.851562 C 18.644531 -11.851562 19.148438 -12.570312 19.148438 -13.792969 C 19.148438 -14.59375 18.898438 -14.804688 18.898438 -14.804688 L 7.253906 -14.804688 L 7.253906 -23.535156 L 21.175781 -23.535156 C 22.398438 -23.535156 22.945312 -24.210938 22.945312 -25.476562 C 22.945312 -26.53125 22.691406 -26.910156 22.691406 -26.910156 C 22.691406 -26.910156 22.019531 -26.617188 20.792969 -26.617188 L 2.699219 -26.617188 C 2.699219 -26.617188 3.078125 -25.519531 3.078125 -23.875 L 3.078125 -2.445312 C 3.078125 -0.886719 3.878906 0 5.566406 0 L 20.625 0 C 22.101562 0 22.945312 -0.675781 22.945312 -2.234375 C 22.945312 -3.375 22.398438 -3.839844 22.398438 -3.839844 Z M 22.398438 -3.839844 "/></g></g></g><g fill="#000000" fill-opacity="1"><g transform="translate(605.472632, 390.281427)"><g><path d="M 12.273438 -26.996094 C 5.863281 -26.996094 2.699219 -26.234375 2.699219 -26.234375 C 2.699219 -26.234375 2.953125 -25.601562 2.953125 -24 L 2.953125 -1.601562 C 2.953125 -0.167969 3.839844 0.335938 5.484375 0.335938 C 6.75 0.335938 7.382812 -0.0429688 7.382812 -0.0429688 C 7.382812 -0.0429688 7.128906 -0.464844 7.128906 -1.941406 L 7.128906 -10.335938 C 8.605469 -10.082031 10.714844 -9.828125 12.992188 -9.828125 C 19.65625 -9.828125 22.863281 -12.863281 22.863281 -18.558594 C 22.863281 -24.042969 19.742188 -26.996094 12.273438 -26.996094 Z M 11.9375 -12.949219 C 10.082031 -12.949219 8.226562 -13.246094 7.128906 -13.457031 L 7.128906 -23.621094 C 8.308594 -23.746094 10.125 -23.875 12.0625 -23.875 C 16.578125 -23.875 18.6875 -22.269531 18.6875 -18.558594 C 18.6875 -15.015625 16.789062 -12.949219 11.9375 -12.949219 Z M 11.9375 -12.949219 "/></g></g></g><g fill="#000000" fill-opacity="1"><g transform="translate(629.808046, 390.281427)"><g/></g></g><g fill="#000000" fill-opacity="1"><g transform="translate(641.153329, 390.281427)"><g><path d="M 22.398438 -3.839844 C 22.398438 -3.839844 21.132812 -3.121094 17.503906 -3.121094 L 7.253906 -3.121094 L 7.253906 -11.851562 L 17.546875 -11.851562 C 18.644531 -11.851562 19.148438 -12.570312 19.148438 -13.792969 C 19.148438 -14.59375 18.898438 -14.804688 18.898438 -14.804688 L 7.253906 -14.804688 L 7.253906 -23.535156 L 21.175781 -23.535156 C 22.398438 -23.535156 22.945312 -24.210938 22.945312 -25.476562 C 22.945312 -26.53125 22.691406 -26.910156 22.691406 -26.910156 C 22.691406 -26.910156 22.019531 -26.617188 20.792969 -26.617188 L 2.699219 -26.617188 C 2.699219 -26.617188 3.078125 -25.519531 3.078125 -23.875 L 3.078125 -2.445312 C 3.078125 -0.886719 3.878906 0 5.566406 0 L 20.625 0 C 22.101562 0 22.945312 -0.675781 22.945312 -2.234375 C 22.945312 -3.375 22.398438 -3.839844 22.398438 -3.839844 Z M 22.398438 -3.839844 "/></g></g></g><g fill="#000000" fill-opacity="1"><g transform="translate(666.121383, 390.281427)"><g/></g></g><g fill="#000000" fill-opacity="1"><g transform="translate(677.466666, 390.281427)"><g><path d="M 20.371094 -8.4375 C 19.488281 -9.996094 18.433594 -10.925781 17.167969 -11.472656 C 20.964844 -12.359375 22.820312 -14.761719 22.820312 -18.898438 C 22.820312 -24.210938 19.699219 -26.996094 12.230469 -26.996094 C 5.863281 -26.996094 2.699219 -26.234375 2.699219 -26.234375 C 2.699219 -26.234375 2.953125 -25.5625 2.953125 -24 L 2.953125 -1.5625 C 2.953125 -0.167969 3.839844 0.335938 5.527344 0.335938 C 6.75 0.335938 7.382812 -0.0429688 7.382812 -0.0429688 C 7.382812 -0.0429688 7.128906 -0.464844 7.128906 -1.941406 L 7.128906 -10.25 L 10.164062 -10.25 C 13.074219 -10.25 14.972656 -9.574219 16.367188 -7.253906 L 19.949219 -0.96875 C 20.457031 -0.125 21.46875 0.335938 23.03125 0.335938 C 24.929688 0.335938 25.6875 -0.0429688 25.6875 -0.0429688 C 25.6875 -0.0429688 24.929688 -0.546875 24.210938 -1.8125 Z M 18.644531 -18.558594 C 18.644531 -15.015625 16.703125 -13.328125 11.980469 -13.328125 L 7.128906 -13.328125 L 7.128906 -23.578125 C 8.351562 -23.707031 10.082031 -23.875 12.019531 -23.875 C 16.535156 -23.875 18.644531 -22.269531 18.644531 -18.558594 Z M 18.644531 -18.558594 "/></g></g></g><g fill="#000000" fill-opacity="1"><g transform="translate(703.109533, 390.281427)"><g/></g></g><g fill="#000000" fill-opacity="1"><g transform="translate(714.454816, 390.281427)"><g><path d="M 22.3125 -3.585938 C 22.3125 -3.585938 21.214844 -3.121094 17.714844 -3.121094 L 7.128906 -3.121094 L 7.128906 -25.054688 C 7.128906 -26.445312 6.242188 -26.996094 4.597656 -26.996094 C 3.375 -26.996094 2.699219 -26.574219 2.699219 -26.574219 C 2.699219 -26.574219 2.953125 -26.195312 2.953125 -24.71875 L 2.953125 -1.8125 C 2.953125 -0.71875 3.5 0 4.765625 0 L 20.710938 0 C 22.101562 0 22.863281 -0.589844 22.863281 -1.984375 C 22.863281 -3.121094 22.3125 -3.585938 22.3125 -3.585938 Z M 22.3125 -3.585938 "/></g></g></g><g fill="#000000" fill-opacity="1"><g transform="translate(737.73584, 390.281427)"><g/></g></g><g fill="#000000" fill-opacity="1"><g transform="translate(749.081123, 390.281427)"><g><path d="M 5.484375 0.335938 C 6.75 0.335938 7.382812 -0.0429688 7.382812 -0.0429688 C 7.382812 -0.0429688 7.128906 -0.464844 7.128906 -1.941406 L 7.128906 -25.054688 C 7.128906 -26.445312 6.242188 -26.996094 4.597656 -26.996094 C 3.332031 -26.996094 2.699219 -26.574219 2.699219 -26.574219 C 2.699219 -26.574219 2.953125 -26.195312 2.953125 -24.71875 L 2.953125 -1.601562 C 2.953125 -0.167969 3.839844 0.335938 5.484375 0.335938 Z M 5.484375 0.335938 "/></g></g></g><g fill="#000000" fill-opacity="1"><g transform="translate(759.161136, 390.281427)"><g/></g></g><g fill="#000000" fill-opacity="1"><g transform="translate(770.506419, 390.281427)"><g><path d="M 24.71875 -25.054688 C 24.71875 -26.40625 23.875 -26.996094 22.1875 -26.996094 C 20.921875 -26.996094 20.289062 -26.574219 20.289062 -26.574219 C 20.289062 -26.574219 20.542969 -26.195312 20.542969 -24.71875 L 20.542969 -6.410156 L 6.875 -26.109375 C 6.453125 -26.742188 5.777344 -26.996094 4.597656 -26.996094 C 3.332031 -26.996094 2.699219 -26.574219 2.699219 -26.574219 C 2.699219 -26.574219 2.953125 -26.195312 2.953125 -24.71875 L 2.953125 -1.5625 C 2.953125 -0.167969 3.839844 0.335938 5.484375 0.335938 C 6.75 0.335938 7.382812 -0.0429688 7.382812 -0.0429688 C 7.382812 -0.0429688 7.128906 -0.464844 7.128906 -1.941406 L 7.128906 -20.246094 L 20.835938 -0.546875 C 21.214844 0.0859375 21.933594 0.335938 23.113281 0.335938 C 24.335938 0.335938 25.011719 -0.0429688 25.011719 -0.0429688 C 25.011719 -0.0429688 24.71875 -0.464844 24.71875 -1.941406 Z M 24.71875 -25.054688 "/></g></g></g><g fill="#000000" fill-opacity="1"><g transform="translate(798.215894, 390.281427)"><g/></g></g><g fill="#000000" fill-opacity="1"><g transform="translate(809.561177, 390.281427)"><g><path d="M 22.398438 -3.839844 C 22.398438 -3.839844 21.132812 -3.121094 17.503906 -3.121094 L 7.253906 -3.121094 L 7.253906 -11.851562 L 17.546875 -11.851562 C 18.644531 -11.851562 19.148438 -12.570312 19.148438 -13.792969 C 19.148438 -14.59375 18.898438 -14.804688 18.898438 -14.804688 L 7.253906 -14.804688 L 7.253906 -23.535156 L 21.175781 -23.535156 C 22.398438 -23.535156 22.945312 -24.210938 22.945312 -25.476562 C 22.945312 -26.53125 22.691406 -26.910156 22.691406 -26.910156 C 22.691406 -26.910156 22.019531 -26.617188 20.792969 -26.617188 L 2.699219 -26.617188 C 2.699219 -26.617188 3.078125 -25.519531 3.078125 -23.875 L 3.078125 -2.445312 C 3.078125 -0.886719 3.878906 0 5.566406 0 L 20.625 0 C 22.101562 0 22.945312 -0.675781 22.945312 -2.234375 C 22.945312 -3.375 22.398438 -3.839844 22.398438 -3.839844 Z M 22.398438 -3.839844 "/></g></g></g></svg>