<?xml version="1.0" encoding="UTF-8" standalone="no"?>
<svg
   width="406.10864"
   zoomAndPan="magnify"
   viewBox="0 0 304.58148 130.62762"
   height="174.17017"
   preserveAspectRatio="xMidYMid"
   version="1.0"
   id="svg539"
   sodipodi:docname="P E R L I N E.svg"
   xmlns:inkscape="http://www.inkscape.org/namespaces/inkscape"
   xmlns:sodipodi="http://sodipodi.sourceforge.net/DTD/sodipodi-0.dtd"
   xmlns="http://www.w3.org/2000/svg"
   xmlns:svg="http://www.w3.org/2000/svg">
  <sodipodi:namedview
     id="namedview541"
     pagecolor="#ffffff"
     bordercolor="#cccccc"
     borderopacity="1"
     inkscape:showpageshadow="0"
     inkscape:pageopacity="1"
     inkscape:pagecheckerboard="0"
     inkscape:deskcolor="#d1d1d1"
     showgrid="false" />
  <defs
     id="defs307">
    <filter
       x="0"
       y="0"
       width="1"
       height="1"
       id="id1">
      <feColorMatrix
         values="0 0 0 0 1 0 0 0 0 1 0 0 0 0 1 0 0 0 1 0"
         color-interpolation-filters="sRGB"
         id="feColorMatrix276" />
    </filter>
    <mask
       id="id2">
      <g
         filter="url(#id1)"
         id="g283">
        <rect
           x="-144"
           width="1728"
           fill="#000000"
           y="-81"
           height="972"
           fill-opacity="0.2392"
           id="rect281" />
      </g>
    </mask>
    <clipPath
       id="id3">
      <path
         d="m 117,54 h 72 v 70.61328 h -72 z m 0,0"
         clip-rule="nonzero"
         id="path286" />
    </clipPath>
    <clipPath
       id="id4">
      <path
         d="m 222,1 h 83.74219 V 84 H 222 Z m 0,0"
         clip-rule="nonzero"
         id="path289" />
    </clipPath>
    <clipPath
       id="id5">
      <path
         d="M 0.601562,1 H 85 V 84 H 0.601562 Z m 0,0"
         clip-rule="nonzero"
         id="path292" />
    </clipPath>
    <clipPath
       id="id6">
      <rect
         x="0"
         width="306"
         y="0"
         height="126"
         id="rect295" />
    </clipPath>
    <clipPath
       id="id7">
      <path
         d="m 684,393 h 72 v 70.47656 h -72 z m 0,0"
         clip-rule="nonzero"
         id="path298" />
    </clipPath>
    <clipPath
       id="id8">
      <path
         d="m 789,340 h 83.74219 v 83 H 789 Z m 0,0"
         clip-rule="nonzero"
         id="path301" />
    </clipPath>
    <clipPath
       id="id9">
      <path
         d="M 567.49219,339.72656 H 652 V 423 h -84.50781 z m 0,0"
         clip-rule="nonzero"
         id="path304" />
    </clipPath>
  </defs>
  <g
     mask="url(#id2)"
     id="g333"
     transform="translate(-567.8283,-339.98566)">
    <g
       transform="translate(567,346)"
       id="g331">
      <g
         clip-path="url(#id6)"
         id="g329">
        <g
           clip-path="url(#id3)"
           id="g311">
          <path
             fill="#000000"
             d="m 188.23437,89.449219 c 0,1.152343 -0.0586,2.300781 -0.17187,3.449219 -0.11328,1.148437 -0.28125,2.285156 -0.50391,3.417968 -0.22656,1.128906 -0.5039,2.246094 -0.83984,3.347656 -0.33203,1.105468 -0.71875,2.187498 -1.16016,3.253908 -0.4414,1.0625 -0.93359,2.10547 -1.47265,3.12109 -0.54297,1.01563 -1.13672,2.00391 -1.77344,2.96094 -0.64063,0.96094 -1.32422,1.88281 -2.05469,2.77344 -0.73047,0.89453 -1.5039,1.74609 -2.3164,2.5625 -0.8125,0.8125 -1.66407,1.58594 -2.55469,2.3164 -0.89063,0.73438 -1.8125,1.41797 -2.76953,2.0586 -0.95703,0.64062 -1.94141,1.23047 -2.95703,1.77734 -1.01563,0.54297 -2.05469,1.03516 -3.11719,1.47656 -1.0625,0.44141 -2.14453,0.82813 -3.2461,1.16016 -1.10156,0.33594 -2.21875,0.61719 -3.34765,0.83984 -1.125,0.22657 -2.26563,0.39454 -3.41016,0.50782 -1.14453,0.11328 -2.29297,0.16797 -3.4414,0.16797 -1.15235,0 -2.30079,-0.0547 -3.44532,-0.16797 -1.14453,-0.11328 -2.28125,-0.28125 -3.41015,-0.50782 -1.12891,-0.22265 -2.2461,-0.5039 -3.34766,-0.83984 -1.09766,-0.33203 -2.17969,-0.71875 -3.24609,-1.16016 -1.0625,-0.4414 -2.10157,-0.93359 -3.11719,-1.47656 -1.01172,-0.54687 -2,-1.13672 -2.95703,-1.77734 -0.95703,-0.64063 -1.87891,-1.32422 -2.76953,-2.0586 -0.89063,-0.73046 -1.74219,-1.5039 -2.55469,-2.3164 -0.8125,-0.81641 -1.58594,-1.66797 -2.31641,-2.5625 -0.73046,-0.89063 -1.41406,-1.8125 -2.05078,-2.77344 -0.64062,-0.95703 -1.23047,-1.94531 -1.77343,-2.96094 -0.54297,-1.01562 -1.03516,-2.05859 -1.47657,-3.12109 -0.4375,-1.06641 -0.82812,-2.14844 -1.16015,-3.253908 -0.33594,-1.101562 -0.61328,-2.21875 -0.83985,-3.347656 -0.22265,-1.132812 -0.39062,-2.269531 -0.5039,-3.417968 -0.11328,-1.148438 -0.16797,-2.296876 -0.16797,-3.449219 0,-1.152344 0.0547,-2.300781 0.16797,-3.449219 0.11328,-1.148438 0.28125,-2.285156 0.5039,-3.417969 0.22657,-1.128906 0.50391,-2.246093 0.83985,-3.347656 0.33203,-1.105469 0.72265,-2.1875 1.16015,-3.253906 0.44141,-1.0625 0.9336,-2.105469 1.47657,-3.121094 0.54296,-1.015625 1.13281,-2.003906 1.77343,-2.960937 0.63672,-0.960938 1.32032,-1.882813 2.05078,-2.777344 0.73047,-0.890625 1.50391,-1.742188 2.31641,-2.558594 0.8125,-0.8125 1.66406,-1.585938 2.55469,-2.316406 0.89062,-0.734375 1.8125,-1.417969 2.76953,-2.058594 0.95703,-0.640625 1.94531,-1.234375 2.95703,-1.777344 1.01562,-0.542968 2.05469,-1.035156 3.11719,-1.476562 1.0664,-0.441406 2.14843,-0.828125 3.24609,-1.164063 1.10156,-0.332031 2.21875,-0.613281 3.34766,-0.835937 1.1289,-0.226563 2.26562,-0.394532 3.41015,-0.507813 1.14453,-0.113281 2.29297,-0.167969 3.44532,-0.167969 1.14843,0 2.29687,0.05469 3.4414,0.167969 1.14453,0.113281 2.28516,0.28125 3.41016,0.507813 1.1289,0.222656 2.24609,0.503906 3.34765,0.835937 1.10157,0.335938 2.1836,0.722657 3.2461,1.164063 1.0625,0.441406 2.10156,0.933594 3.11719,1.476562 1.01562,0.542969 2,1.136719 2.95703,1.777344 0.95703,0.640625 1.8789,1.324219 2.76953,2.058594 0.89062,0.730468 1.74219,1.503906 2.55469,2.316406 0.8125,0.816406 1.58593,1.667969 2.3164,2.558594 0.73047,0.894531 1.41406,1.816406 2.05469,2.777344 0.63672,0.957031 1.23047,1.945312 1.77344,2.960937 0.53906,1.015625 1.03125,2.058594 1.47265,3.121094 0.44141,1.066406 0.82813,2.148437 1.16016,3.253906 0.33594,1.101563 0.61328,2.21875 0.83984,3.347656 0.22266,1.132813 0.39063,2.269531 0.50391,3.417969 0.11328,1.148438 0.17187,2.296875 0.17187,3.449219 z m 0,0"
             fill-opacity="1"
             fill-rule="nonzero"
             id="path309" />
        </g>
        <path
           fill="#000000"
           d="m 222.34375,90.332031 c 0,0.558594 -0.0273,1.117188 -0.082,1.671875 -0.0547,0.558594 -0.13672,1.109375 -0.2461,1.660156 -0.10937,0.546876 -0.24218,1.089844 -0.40625,1.625 -0.16015,0.535157 -0.34765,1.0625 -0.5625,1.578126 -0.21484,0.515624 -0.45312,1.023437 -0.71484,1.515624 -0.26562,0.492188 -0.55078,0.972657 -0.86328,1.4375 -0.30859,0.464848 -0.64063,0.914068 -0.99609,1.347658 -0.35547,0.43359 -0.72657,0.84766 -1.125,1.24219 -0.39454,0.39453 -0.8086,0.76953 -1.23829,1.125 -0.43359,0.35547 -0.8789,0.6875 -1.34375,1 -0.46484,0.30859 -0.94531,0.59765 -1.4375,0.85937 -0.49218,0.26563 -0.99609,0.50391 -1.51171,0.71875 -0.51563,0.21485 -1.04297,0.40235 -1.57813,0.56641 -0.53125,0.16015 -1.07422,0.29687 -1.62109,0.40625 -0.54688,0.10937 -1.10157,0.1914 -1.65625,0.24609 -0.55469,0.0547 -1.11328,0.082 -1.67188,0.082 -0.55859,0 -1.11719,-0.0273 -1.67187,-0.082 -0.55469,-0.0547 -1.10938,-0.13672 -1.65625,-0.24609 -0.54688,-0.10938 -1.08985,-0.2461 -1.625,-0.40625 -0.53125,-0.16406 -1.0586,-0.35156 -1.57422,-0.56641 -0.51563,-0.21484 -1.01953,-0.45312 -1.51172,-0.71875 -0.49219,-0.26172 -0.97266,-0.55078 -1.4375,-0.85937 -0.46484,-0.3125 -0.91016,-0.64453 -1.34375,-1 -0.43359,-0.35547 -0.84375,-0.73047 -1.24219,-1.125 -0.39453,-0.39453 -0.76953,-0.8086 -1.12109,-1.24219 -0.35547,-0.43359 -0.6875,-0.88281 -1,-1.347658 -0.3086,-0.464843 -0.59375,-0.945312 -0.85938,-1.4375 -0.26172,-0.492187 -0.5,-1 -0.71484,-1.515624 -0.21484,-0.515626 -0.40234,-1.042969 -0.5625,-1.578126 -0.16406,-0.535156 -0.30078,-1.078124 -0.40625,-1.625 -0.10938,-0.550781 -0.19141,-1.101562 -0.24609,-1.660156 -0.0547,-0.554687 -0.082,-1.113281 -0.082,-1.671875 0,-0.5625 0.0273,-1.121093 0.082,-1.675781 0.0547,-0.558594 0.13671,-1.109375 0.24609,-1.660156 0.10547,-0.546875 0.24219,-1.089844 0.40625,-1.625 0.16016,-0.535156 0.34766,-1.0625 0.5625,-1.578125 0.21484,-0.515625 0.45312,-1.023438 0.71484,-1.515625 0.26563,-0.492188 0.55078,-0.972656 0.85938,-1.4375 0.3125,-0.464844 0.64453,-0.914063 1,-1.347656 0.35156,-0.433594 0.72656,-0.847657 1.12109,-1.242188 0.39844,-0.394531 0.8086,-0.769531 1.24219,-1.125 0.43359,-0.355469 0.87891,-0.6875 1.34375,-1 0.46484,-0.308594 0.94531,-0.597656 1.4375,-0.859375 0.49219,-0.265625 0.99609,-0.503906 1.51172,-0.71875 0.51562,-0.214844 1.04297,-0.402344 1.57422,-0.566406 0.53515,-0.160157 1.07812,-0.296875 1.625,-0.40625 0.54687,-0.109375 1.10156,-0.191407 1.65625,-0.246094 0.55468,-0.05469 1.11328,-0.08203 1.67187,-0.08203 0.5586,0 1.11719,0.02734 1.67188,0.08203 0.55468,0.05469 1.10937,0.136719 1.65625,0.246094 0.54687,0.109375 1.08984,0.246093 1.62109,0.40625 0.53516,0.164062 1.0625,0.351562 1.57813,0.566406 0.51562,0.214844 1.01953,0.453125 1.51171,0.71875 0.49219,0.261719 0.97266,0.550781 1.4375,0.859375 0.46485,0.3125 0.91016,0.644531 1.34375,1 0.42969,0.355469 0.84375,0.730469 1.23829,1.125 0.39843,0.394531 0.76953,0.808594 1.125,1.242188 0.35546,0.433593 0.6875,0.882812 0.99609,1.347656 0.3125,0.464844 0.59766,0.945312 0.86328,1.4375 0.26172,0.492187 0.5,1 0.71484,1.515625 0.21485,0.515625 0.40235,1.042969 0.5625,1.578125 0.16407,0.535156 0.29688,1.078125 0.40625,1.625 0.10938,0.550781 0.19141,1.101562 0.2461,1.660156 0.0547,0.554688 0.082,1.113281 0.082,1.675781 z m 0,0"
           fill-opacity="1"
           fill-rule="nonzero"
           id="path313" />
        <path
           fill="#000000"
           d="m 255.54297,81.132812 c 0,0.558594 -0.0273,1.117188 -0.082,1.671876 -0.0547,0.558593 -0.13282,1.109374 -0.24219,1.660156 -0.10938,0.546875 -0.24609,1.089844 -0.41016,1.625 -0.16015,0.535156 -0.34765,1.0625 -0.5625,1.578125 -0.21484,0.519531 -0.45312,1.023437 -0.71484,1.515625 -0.26172,0.496094 -0.55078,0.972656 -0.85938,1.4375 -0.3125,0.464844 -0.64453,0.914062 -1,1.347656 -0.35156,0.433594 -0.72656,0.847656 -1.12109,1.242188 -0.39453,0.394531 -0.80859,0.769531 -1.24219,1.125 -0.42968,0.355468 -0.8789,0.6875 -1.34375,1 -0.46484,0.3125 -0.9414,0.597656 -1.4375,0.863281 -0.49218,0.261719 -0.99609,0.5 -1.51172,0.714843 -0.51562,0.214844 -1.04296,0.402344 -1.57421,0.566407 -0.53516,0.160156 -1.07813,0.296875 -1.625,0.40625 -0.54688,0.109375 -1.10157,0.191406 -1.65625,0.246093 -0.55469,0.05469 -1.11329,0.08203 -1.67188,0.08203 -0.55859,0 -1.11328,-0.02734 -1.67187,-0.08203 -0.55469,-0.05469 -1.10547,-0.136718 -1.65625,-0.246093 -0.54688,-0.109375 -1.08594,-0.246094 -1.6211,-0.40625 -0.53515,-0.164063 -1.0625,-0.351563 -1.57812,-0.566407 -0.51563,-0.214843 -1.01953,-0.453124 -1.51172,-0.714843 -0.49219,-0.265625 -0.97266,-0.550781 -1.4375,-0.863281 -0.46485,-0.3125 -0.91016,-0.644532 -1.34375,-1 -0.42969,-0.355469 -0.84375,-0.730469 -1.23828,-1.125 -0.39453,-0.394532 -0.76953,-0.808594 -1.125,-1.242188 -0.35547,-0.433594 -0.6875,-0.882812 -0.9961,-1.347656 -0.3125,-0.464844 -0.59765,-0.941406 -0.86328,-1.4375 -0.26172,-0.492188 -0.5,-0.996094 -0.71484,-1.515625 -0.21485,-0.515625 -0.40235,-1.042969 -0.5625,-1.578125 -0.16406,-0.535156 -0.29688,-1.078125 -0.40625,-1.625 -0.10938,-0.550782 -0.19141,-1.101563 -0.2461,-1.660156 -0.0547,-0.554688 -0.082,-1.113282 -0.082,-1.671876 0,-0.5625 0.0273,-1.117187 0.082,-1.675781 0.0547,-0.554687 0.13672,-1.109375 0.2461,-1.65625 0.10937,-0.550781 0.24219,-1.09375 0.40625,-1.628906 0.16015,-0.535156 0.34765,-1.0625 0.5625,-1.578125 0.21484,-0.515625 0.45312,-1.023438 0.71484,-1.515625 0.26563,-0.492187 0.55078,-0.972656 0.86328,-1.4375 0.3086,-0.464844 0.64063,-0.914063 0.9961,-1.347656 0.35547,-0.429688 0.73047,-0.84375 1.125,-1.242188 0.39453,-0.394531 0.80859,-0.769531 1.23828,-1.125 0.43359,-0.355469 0.8789,-0.6875 1.34375,-1 0.46484,-0.308593 0.94531,-0.597656 1.4375,-0.859375 0.49219,-0.265625 0.99609,-0.503906 1.51172,-0.71875 0.51562,-0.214844 1.04297,-0.402344 1.57812,-0.5625 0.53516,-0.164062 1.07422,-0.300781 1.6211,-0.410156 0.55078,-0.109375 1.10156,-0.191406 1.65625,-0.246094 0.55859,-0.05469 1.11328,-0.08203 1.67187,-0.08203 0.55859,0 1.11719,0.02734 1.67188,0.08203 0.55468,0.05469 1.10937,0.136719 1.65625,0.246094 0.54687,0.109375 1.08984,0.246094 1.625,0.410156 0.53125,0.160156 1.05859,0.347656 1.57421,0.5625 0.51563,0.214844 1.01954,0.453125 1.51172,0.71875 0.4961,0.261719 0.97266,0.550782 1.4375,0.859375 0.46485,0.3125 0.91407,0.644531 1.34375,1 0.4336,0.355469 0.84766,0.730469 1.24219,1.125 0.39453,0.398438 0.76953,0.8125 1.12109,1.242188 0.35547,0.433593 0.6875,0.882812 1,1.347656 0.3086,0.464844 0.59766,0.945313 0.85938,1.4375 0.26172,0.492187 0.5,1 0.71484,1.515625 0.21485,0.515625 0.40235,1.042969 0.5625,1.578125 0.16407,0.535156 0.30078,1.078125 0.41016,1.628906 0.10547,0.546875 0.1875,1.101563 0.24219,1.65625 0.0547,0.558594 0.082,1.113281 0.082,1.675781 z m 0,0"
           fill-opacity="1"
           fill-rule="nonzero"
           id="path315" />
        <path
           fill="#000000"
           d="m 84.757812,81.132812 c 0,0.558594 -0.02734,1.117188 -0.08203,1.671876 -0.05469,0.558593 -0.136719,1.109374 -0.246093,1.660156 -0.105469,0.546875 -0.242188,1.089844 -0.40625,1.625 -0.160157,0.535156 -0.347657,1.0625 -0.5625,1.578125 -0.214844,0.519531 -0.453126,1.023437 -0.714844,1.515625 -0.265625,0.496094 -0.550782,0.972656 -0.859375,1.4375 -0.3125,0.464844 -0.644531,0.914062 -1,1.347656 -0.351563,0.433594 -0.726563,0.847656 -1.125,1.242188 -0.394531,0.394531 -0.804688,0.769531 -1.238281,1.125 -0.433594,0.355468 -0.878907,0.6875 -1.34375,1 -0.464844,0.3125 -0.945313,0.597656 -1.4375,0.863281 -0.492188,0.261719 -0.996094,0.5 -1.511719,0.714843 -0.515625,0.214844 -1.042969,0.402344 -1.574219,0.566407 -0.535156,0.160156 -1.078125,0.296875 -1.625,0.40625 -0.546875,0.109375 -1.101562,0.191406 -1.65625,0.246093 -0.554688,0.05469 -1.113281,0.08203 -1.671875,0.08203 -0.558594,0 -1.117187,-0.02734 -1.671875,-0.08203 -0.554688,-0.05469 -1.109375,-0.136718 -1.65625,-0.246093 -0.546875,-0.109375 -1.089844,-0.246094 -1.621094,-0.40625 -0.535156,-0.164063 -1.0625,-0.351563 -1.578125,-0.566407 -0.515625,-0.214843 -1.019531,-0.453124 -1.511719,-0.714843 -0.492187,-0.265625 -0.972656,-0.550781 -1.4375,-0.863281 -0.464843,-0.3125 -0.910156,-0.644532 -1.34375,-1 -0.429687,-0.355469 -0.84375,-0.730469 -1.238281,-1.125 -0.398437,-0.394532 -0.769531,-0.808594 -1.125,-1.242188 -0.355469,-0.433594 -0.6875,-0.882812 -0.996093,-1.347656 -0.3125,-0.464844 -0.597657,-0.941406 -0.863282,-1.4375 -0.261718,-0.492188 -0.5,-0.996094 -0.714844,-1.515625 -0.214843,-0.515625 -0.402343,-1.042969 -0.5625,-1.578125 -0.164062,-0.535156 -0.296874,-1.078125 -0.40625,-1.625 C 50.867189,83.914062 50.785157,83.363281 50.73047,82.804688 50.67578,82.25 50.64844,81.691406 50.64844,81.132812 c 0,-0.5625 0.02734,-1.117187 0.08203,-1.675781 0.05469,-0.554687 0.136719,-1.109375 0.246093,-1.65625 0.109376,-0.550781 0.242188,-1.09375 0.40625,-1.628906 0.160157,-0.535156 0.347657,-1.0625 0.5625,-1.578125 0.214844,-0.515625 0.453126,-1.023438 0.714844,-1.515625 0.265625,-0.492187 0.550782,-0.972656 0.863282,-1.4375 0.308593,-0.464844 0.640624,-0.914063 0.996093,-1.347656 0.355469,-0.429688 0.726563,-0.84375 1.125,-1.242188 0.394531,-0.394531 0.808594,-0.769531 1.238281,-1.125 0.433594,-0.355469 0.878907,-0.6875 1.34375,-1 0.464844,-0.308593 0.945313,-0.597656 1.4375,-0.859375 0.492188,-0.265625 0.996094,-0.503906 1.511719,-0.71875 0.515625,-0.214844 1.042969,-0.402344 1.578125,-0.5625 0.53125,-0.164062 1.074219,-0.300781 1.621094,-0.410156 0.546875,-0.109375 1.101562,-0.191406 1.65625,-0.246094 0.554688,-0.05469 1.113281,-0.08203 1.671875,-0.08203 0.558594,0 1.117187,0.02734 1.671875,0.08203 0.554688,0.05469 1.109375,0.136719 1.65625,0.246094 0.546875,0.109375 1.089844,0.246094 1.625,0.410156 0.53125,0.160156 1.058594,0.347656 1.574219,0.5625 0.515625,0.214844 1.019531,0.453125 1.511719,0.71875 0.492187,0.261719 0.972656,0.550782 1.4375,0.859375 0.464843,0.3125 0.910156,0.644531 1.34375,1 0.433593,0.355469 0.84375,0.730469 1.238281,1.125 0.398437,0.398438 0.773437,0.8125 1.125,1.242188 0.355469,0.433593 0.6875,0.882812 1,1.347656 0.308593,0.464844 0.59375,0.945313 0.859375,1.4375 0.261718,0.492187 0.5,1 0.714844,1.515625 0.214843,0.515625 0.402343,1.042969 0.5625,1.578125 0.164062,0.535156 0.300781,1.078125 0.40625,1.628906 0.109374,0.546875 0.191406,1.101563 0.246093,1.65625 0.05469,0.558594 0.08203,1.113281 0.08203,1.675781 z m 0,0"
           fill-opacity="1"
           fill-rule="nonzero"
           id="path317" />
        <path
           fill="#000000"
           d="m 117.96484,90.332031 c 0,0.558594 -0.0273,1.117188 -0.082,1.671875 -0.0547,0.558594 -0.13672,1.109375 -0.24609,1.660156 -0.10938,0.546876 -0.24609,1.089844 -0.40625,1.625 -0.16406,0.535157 -0.35156,1.0625 -0.56641,1.578126 -0.21093,0.515624 -0.45312,1.023437 -0.71484,1.515624 -0.26172,0.492188 -0.55078,0.972657 -0.85938,1.4375 -0.3125,0.464848 -0.64453,0.914068 -1,1.347658 -0.35156,0.43359 -0.72656,0.84766 -1.12109,1.24219 -0.39453,0.39453 -0.80859,0.76953 -1.24219,1.125 -0.42968,0.35547 -0.8789,0.6875 -1.34375,1 -0.46484,0.30859 -0.9414,0.59765 -1.43359,0.85937 -0.49609,0.26563 -1,0.50391 -1.51563,0.71875 -0.51562,0.21485 -1.03906,0.40235 -1.57421,0.56641 -0.53516,0.16015 -1.07813,0.29687 -1.625,0.40625 -0.54688,0.10937 -1.09766,0.1914 -1.65625,0.24609 -0.55469,0.0547 -1.11329,0.082 -1.67188,0.082 -0.55859,0 -1.113281,-0.0273 -1.671875,-0.082 -0.554687,-0.0547 -1.105469,-0.13672 -1.65625,-0.24609 -0.546875,-0.10938 -1.085937,-0.2461 -1.621094,-0.40625 -0.535156,-0.16406 -1.0625,-0.35156 -1.578125,-0.56641 -0.515625,-0.21484 -1.019531,-0.45312 -1.511718,-0.71875 -0.492188,-0.26172 -0.972657,-0.55078 -1.4375,-0.85937 -0.460938,-0.3125 -0.910157,-0.64453 -1.34375,-1 -0.429688,-0.35547 -0.84375,-0.73047 -1.238282,-1.125 -0.394531,-0.39453 -0.769531,-0.8086 -1.125,-1.24219 -0.355468,-0.43359 -0.6875,-0.88281 -0.996094,-1.347658 -0.3125,-0.464843 -0.597656,-0.945312 -0.859374,-1.4375 -0.265626,-0.492187 -0.503907,-1 -0.71875,-1.515624 -0.210938,-0.515626 -0.402344,-1.042969 -0.5625,-1.578126 -0.164063,-0.535156 -0.296876,-1.078124 -0.40625,-1.625 -0.109376,-0.550781 -0.191407,-1.101562 -0.246094,-1.660156 -0.05469,-0.554687 -0.08203,-1.113281 -0.08203,-1.671875 0,-0.5625 0.02734,-1.121093 0.08203,-1.675781 0.05469,-0.558594 0.136718,-1.109375 0.246094,-1.660156 0.109374,-0.546875 0.242187,-1.089844 0.40625,-1.625 0.160156,-0.535156 0.351562,-1.0625 0.5625,-1.578125 0.214843,-0.515625 0.453124,-1.023438 0.71875,-1.515625 0.261718,-0.492188 0.546874,-0.972656 0.859374,-1.4375 0.308594,-0.464844 0.640626,-0.914063 0.996094,-1.347656 0.355469,-0.433594 0.730469,-0.847657 1.125,-1.242188 0.394532,-0.394531 0.808594,-0.769531 1.238282,-1.125 0.433593,-0.355469 0.882812,-0.6875 1.34375,-1 0.464843,-0.308594 0.945312,-0.597656 1.4375,-0.859375 0.492187,-0.265625 0.996093,-0.503906 1.511718,-0.71875 0.515625,-0.214844 1.042969,-0.402344 1.578125,-0.566406 0.535157,-0.160157 1.074219,-0.296875 1.621094,-0.40625 0.550781,-0.109375 1.101563,-0.191407 1.65625,-0.246094 0.558594,-0.05469 1.113285,-0.08203 1.671875,-0.08203 0.55859,0 1.11719,0.02734 1.67188,0.08203 0.55859,0.05469 1.10937,0.136719 1.65625,0.246094 0.54687,0.109375 1.08984,0.246093 1.625,0.40625 0.53515,0.164062 1.05859,0.351562 1.57421,0.566406 0.51563,0.214844 1.01954,0.453125 1.51563,0.71875 0.49219,0.261719 0.96875,0.550781 1.43359,0.859375 0.46485,0.3125 0.91407,0.644531 1.34375,1 0.4336,0.355469 0.84766,0.730469 1.24219,1.125 0.39453,0.394531 0.76953,0.808594 1.12109,1.242188 0.35547,0.433593 0.6875,0.882812 1,1.347656 0.3086,0.464844 0.59766,0.945312 0.85938,1.4375 0.26172,0.492187 0.50391,1 0.71484,1.515625 0.21485,0.515625 0.40235,1.042969 0.56641,1.578125 0.16016,0.535156 0.29687,1.078125 0.40625,1.625 0.10937,0.550781 0.19141,1.101562 0.24609,1.660156 0.0547,0.554688 0.082,1.113281 0.082,1.675781 z m 0,0"
           fill-opacity="1"
           fill-rule="nonzero"
           id="path319" />
        <g
           clip-path="url(#id4)"
           id="g323">
          <path
             fill="#000000"
             d="m 255.16016,83.960938 c -0.33594,0 -0.66407,-0.05859 -0.98047,-0.179688 -0.31641,-0.117188 -0.60157,-0.285156 -0.85547,-0.503906 -0.25781,-0.222656 -0.46485,-0.480469 -0.62891,-0.777344 -0.16406,-0.292969 -0.26953,-0.609375 -0.32031,-0.941406 -0.0508,-0.335938 -0.043,-0.667969 0.0234,-1 0.0703,-0.328125 0.19531,-0.640625 0.37109,-0.925782 0.17969,-0.285156 0.40234,-0.53125 0.66797,-0.738281 0.26953,-0.207031 0.5625,-0.363281 0.88672,-0.460937 12.78906,-4 45.89062,-17.675782 45.43359,-32.738282 C 299.57418,39.859375 294.3359,33.890625 284.17574,27.960938 271.48824,20.554688 251.2734,13.414062 224.09762,6.703125 223.73824,6.609375 223.41402,6.449219 223.12105,6.222656 222.82812,6 222.58594,5.726562 222.39844,5.410156 222.21094,5.089844 222.08984,4.75 222.03516,4.382812 221.98047,4.015625 222,3.652344 222.08984,3.296875 c 0.0859,-0.359375 0.23828,-0.691406 0.45703,-0.988281 0.21875,-0.300782 0.48438,-0.546875 0.79688,-0.742188 0.3125,-0.195312 0.65234,-0.324218 1.01562,-0.382812 0.36719,-0.0625 0.72657,-0.054688 1.08985,0.027344 53.29297,13.144531 79.44531,27.621093 79.95312,44.324218 0.29297,9.679688 -8.10937,19.113282 -24.97656,28.035156 -7.85937,4.09375 -16.00391,7.515626 -24.42578,10.265626 -0.27344,0.08203 -0.55078,0.125 -0.83984,0.125 z m 0,0"
             fill-opacity="1"
             fill-rule="nonzero"
             id="path321" />
        </g>
        <g
           clip-path="url(#id5)"
           id="g327">
          <path
             fill="#000000"
             d="m 51.074219,83.960938 c -0.285157,0 -0.566407,-0.04297 -0.84375,-0.125 C 41.808594,81.085938 33.671875,77.664062 25.8125,73.570312 8.945312,64.648438 0.539062,55.214844 0.835938,45.535156 1.34375,28.832031 27.496094,14.355469 80.789062,1.21875 81.15625,1.121094 81.527344,1.097656 81.902344,1.148438 c 0.378906,0.050781 0.730468,0.171874 1.054687,0.367187 0.328125,0.191406 0.605469,0.441406 0.832031,0.746094 0.226563,0.304687 0.386719,0.644531 0.476563,1.011719 0.08984,0.371093 0.105469,0.742187 0.04687,1.117187 -0.05859,0.378906 -0.1875,0.726563 -0.386719,1.050781 -0.199219,0.324219 -0.457031,0.59375 -0.765625,0.816406 C 82.851557,6.476562 82.511714,6.628906 82.14062,6.710938 54.964844,13.410156 34.75,20.5625 22.058594,27.96875 11.910156,33.898438 6.664062,39.867188 6.480469,45.703125 6.019531,60.757812 39.125,74.433594 51.914062,78.441406 c 0.320313,0.101563 0.617188,0.253906 0.882813,0.460938 0.265625,0.207031 0.492187,0.453125 0.667969,0.738281 0.179687,0.289063 0.304687,0.597656 0.371094,0.925781 0.07031,0.332032 0.07812,0.664063 0.02734,1 -0.05078,0.332032 -0.160156,0.648438 -0.320312,0.941406 -0.164063,0.296876 -0.375,0.554688 -0.628907,0.777344 -0.257812,0.21875 -0.542968,0.386719 -0.859374,0.507813 -0.316407,0.117187 -0.640626,0.175781 -0.980469,0.175781 z m 0,0"
             fill-opacity="1"
             fill-rule="nonzero"
             id="path325" />
        </g>
      </g>
    </g>
  </g>
  <g
     clip-path="url(#id7)"
     id="g337"
     transform="translate(-567.8283,-339.98566)">
    <path
       fill="#ff0063"
       d="m 755.23437,428.3125 c 0,1.15234 -0.0586,2.30469 -0.17187,3.44922 -0.11328,1.14844 -0.28125,2.28515 -0.50391,3.41797 -0.22656,1.1289 -0.5039,2.24609 -0.83984,3.34765 -0.33203,1.10547 -0.71875,2.1875 -1.16016,3.25391 -0.4414,1.0625 -0.93359,2.10547 -1.47265,3.12109 -0.54297,1.01563 -1.13672,2.00391 -1.77344,2.96485 -0.64063,0.95703 -1.32422,1.88281 -2.05469,2.77343 -0.73047,0.89063 -1.5039,1.74219 -2.3164,2.5586 -0.8125,0.8125 -1.66407,1.58594 -2.55469,2.32031 -0.89063,0.73047 -1.8125,1.41406 -2.76953,2.05469 -0.95703,0.64062 -1.94141,1.23437 -2.95703,1.77734 -1.01563,0.54297 -2.05469,1.03516 -3.11719,1.47656 -1.0625,0.44141 -2.14453,0.82813 -3.2461,1.16407 -1.10156,0.33203 -2.21875,0.61328 -3.34765,0.83593 -1.125,0.22657 -2.26563,0.39454 -3.41016,0.50782 -1.14453,0.11328 -2.29297,0.17187 -3.4414,0.17187 -1.15235,0 -2.30079,-0.0586 -3.44532,-0.17187 -1.14453,-0.11328 -2.28125,-0.28125 -3.41015,-0.50782 -1.12891,-0.22265 -2.2461,-0.5039 -3.34766,-0.83593 -1.09766,-0.33594 -2.17969,-0.72266 -3.24609,-1.16407 -1.0625,-0.4414 -2.10157,-0.93359 -3.11719,-1.47656 -1.01172,-0.54297 -2,-1.13672 -2.95703,-1.77734 -0.95703,-0.64063 -1.87891,-1.32422 -2.76953,-2.05469 -0.89063,-0.73437 -1.74219,-1.50781 -2.55469,-2.32031 -0.8125,-0.81641 -1.58594,-1.66797 -2.31641,-2.5586 -0.73047,-0.89062 -1.41406,-1.8164 -2.05078,-2.77343 -0.64062,-0.96094 -1.23047,-1.94922 -1.77344,-2.96485 -0.54296,-1.01562 -1.03515,-2.05859 -1.47656,-3.12109 -0.4375,-1.06641 -0.82812,-2.14844 -1.16015,-3.25391 -0.33594,-1.10156 -0.61329,-2.21875 -0.83985,-3.34765 -0.22265,-1.13282 -0.39062,-2.26953 -0.5039,-3.41797 -0.11329,-1.14453 -0.16797,-2.29688 -0.16797,-3.44922 0,-1.15234 0.0547,-2.30078 0.16797,-3.44922 0.11328,-1.14844 0.28125,-2.28516 0.5039,-3.41797 0.22656,-1.1289 0.50391,-2.24609 0.83985,-3.34765 0.33203,-1.10547 0.72265,-2.1875 1.16015,-3.25391 0.44141,-1.0625 0.9336,-2.10547 1.47656,-3.12109 0.54297,-1.01563 1.13282,-2.00391 1.77344,-2.96094 0.63672,-0.96094 1.32031,-1.88281 2.05078,-2.77344 0.73047,-0.89453 1.50391,-1.74609 2.31641,-2.5625 0.8125,-0.8125 1.66406,-1.58594 2.55469,-2.31641 0.89062,-0.73046 1.8125,-1.41796 2.76953,-2.05859 0.95703,-0.64062 1.94531,-1.23047 2.95703,-1.77734 1.01562,-0.54297 2.05469,-1.03516 3.11719,-1.47657 1.0664,-0.4375 2.14843,-0.82812 3.24609,-1.16015 1.10156,-0.33594 2.21875,-0.61719 3.34766,-0.83985 1.1289,-0.22656 2.26562,-0.39453 3.41015,-0.50781 1.14453,-0.11328 2.29297,-0.16797 3.44532,-0.16797 1.14843,0 2.29687,0.0547 3.4414,0.16797 1.14453,0.11328 2.28516,0.28125 3.41016,0.50781 1.1289,0.22266 2.24609,0.50391 3.34765,0.83985 1.10157,0.33203 2.1836,0.72265 3.2461,1.16015 1.0625,0.44141 2.10156,0.9336 3.11719,1.47657 1.01562,0.54687 2,1.13672 2.95703,1.77734 0.95703,0.64063 1.8789,1.32813 2.76953,2.05859 0.89062,0.73047 1.74219,1.50391 2.55469,2.31641 0.8125,0.81641 1.58593,1.66797 2.3164,2.5625 0.73047,0.89063 1.41406,1.8125 2.05469,2.77344 0.63672,0.95703 1.23047,1.94531 1.77344,2.96094 0.53906,1.01562 1.03125,2.05859 1.47265,3.12109 0.44141,1.06641 0.82813,2.14844 1.16016,3.25391 0.33594,1.10156 0.61328,2.21875 0.83984,3.34765 0.22266,1.13281 0.39063,2.26953 0.50391,3.41797 0.11328,1.14844 0.17187,2.29688 0.17187,3.44922 z m 0,0"
       fill-opacity="1"
       fill-rule="nonzero"
       id="path335" />
  </g>
  <path
     fill="#ff0063"
     d="m 221.51545,89.209652 c 0,0.5586 -0.0273,1.11719 -0.082,1.67188 -0.0547,0.55859 -0.13672,1.10937 -0.2461,1.66015 -0.10937,0.54688 -0.24218,1.08985 -0.40625,1.625 -0.16015,0.53516 -0.34765,1.0625 -0.5625,1.57813 -0.21484,0.51953 -0.45312,1.02344 -0.71484,1.51562 -0.26562,0.4961 -0.55078,0.97266 -0.86328,1.4375 -0.30859,0.46485 -0.64063,0.91407 -0.99609,1.347658 -0.35547,0.43359 -0.72657,0.84766 -1.125,1.24219 -0.39454,0.39453 -0.8086,0.76953 -1.23829,1.125 -0.43359,0.35547 -0.8789,0.6875 -1.34375,1 -0.46484,0.3125 -0.94531,0.59765 -1.4375,0.86328 -0.49218,0.26172 -0.99609,0.5 -1.51171,0.71484 -0.51563,0.21485 -1.04297,0.40235 -1.57813,0.56641 -0.53125,0.16015 -1.07422,0.29687 -1.62109,0.40625 -0.54688,0.10937 -1.10157,0.1914 -1.65625,0.24609 -0.55469,0.0547 -1.11328,0.082 -1.67188,0.082 -0.55859,0 -1.11719,-0.0273 -1.67187,-0.082 -0.55469,-0.0547 -1.10938,-0.13672 -1.65625,-0.24609 -0.54688,-0.10938 -1.08985,-0.2461 -1.625,-0.40625 -0.53125,-0.16406 -1.0586,-0.35156 -1.57422,-0.56641 -0.51563,-0.21484 -1.01953,-0.45312 -1.51172,-0.71484 -0.49219,-0.26563 -0.97266,-0.55078 -1.4375,-0.86328 -0.46484,-0.3125 -0.91016,-0.64453 -1.34375,-1 -0.43359,-0.35547 -0.84375,-0.73047 -1.24219,-1.125 -0.39453,-0.39453 -0.76953,-0.8086 -1.12109,-1.24219 -0.35547,-0.433588 -0.6875,-0.882808 -1,-1.347658 -0.3086,-0.46484 -0.59375,-0.9414 -0.85938,-1.4375 -0.26172,-0.49218 -0.5,-0.99609 -0.71484,-1.51562 -0.21484,-0.51563 -0.40234,-1.04297 -0.5625,-1.57813 -0.16406,-0.53515 -0.30078,-1.07812 -0.40625,-1.625 -0.10938,-0.55078 -0.19141,-1.10156 -0.24609,-1.66015 -0.0547,-0.55469 -0.082,-1.11328 -0.082,-1.67188 0,-0.5625 0.0273,-1.11719 0.082,-1.67578 0.0547,-0.55859 0.13671,-1.10937 0.24609,-1.66016 0.10547,-0.54687 0.24219,-1.08984 0.40625,-1.625 0.16016,-0.53515 0.34766,-1.0625 0.5625,-1.57812 0.21484,-0.51563 0.45312,-1.02344 0.71484,-1.51563 0.26563,-0.49218 0.55078,-0.97265 0.85938,-1.4375 0.3125,-0.46484 0.64453,-0.91406 1,-1.34765 0.35156,-0.42969 0.72656,-0.84375 1.12109,-1.24219 0.39844,-0.39453 0.8086,-0.76953 1.24219,-1.125 0.43359,-0.35547 0.87891,-0.6875 1.34375,-1 0.46484,-0.30859 0.94531,-0.59766 1.4375,-0.85937 0.49219,-0.26563 0.99609,-0.50391 1.51172,-0.71875 0.51562,-0.21485 1.04297,-0.40235 1.57422,-0.5625 0.53515,-0.16407 1.07812,-0.30079 1.625,-0.41016 0.54687,-0.10938 1.10156,-0.19141 1.65625,-0.24609 0.55468,-0.0547 1.11328,-0.082 1.67187,-0.082 0.5586,0 1.11719,0.0274 1.67188,0.082 0.55468,0.0547 1.10937,0.13671 1.65625,0.24609 0.54687,0.10937 1.08984,0.24609 1.62109,0.41016 0.53516,0.16015 1.0625,0.34765 1.57813,0.5625 0.51562,0.21484 1.01953,0.45312 1.51171,0.71875 0.49219,0.26171 0.97266,0.55078 1.4375,0.85937 0.46485,0.3125 0.91016,0.64453 1.34375,1 0.42969,0.35547 0.84375,0.73047 1.23829,1.125 0.39843,0.39844 0.76953,0.8125 1.125,1.24219 0.35546,0.43359 0.6875,0.88281 0.99609,1.34765 0.3125,0.46485 0.59766,0.94532 0.86328,1.4375 0.26172,0.49219 0.5,1 0.71484,1.51563 0.21485,0.51562 0.40235,1.04297 0.5625,1.57812 0.16407,0.53516 0.29688,1.07813 0.40625,1.625 0.10938,0.55079 0.19141,1.10157 0.2461,1.66016 0.0547,0.55859 0.082,1.11328 0.082,1.67578 z m 0,0"
     fill-opacity="1"
     fill-rule="nonzero"
     id="path339" />
  <path
     fill="#ff0063"
     d="m 254.71467,80.010432 c 0,0.5586 -0.0273,1.11719 -0.082,1.67578 -0.0547,0.55469 -0.13672,1.10938 -0.24219,1.65625 -0.10938,0.55079 -0.24609,1.08985 -0.41016,1.625 -0.16015,0.53516 -0.34765,1.0625 -0.5625,1.57813 -0.21484,0.51953 -0.45312,1.02344 -0.71484,1.51562 -0.26172,0.4961 -0.55078,0.97266 -0.85938,1.44141 -0.3125,0.46484 -0.64453,0.91406 -1,1.34375 -0.35156,0.43359 -0.72656,0.84766 -1.12109,1.24219 -0.39453,0.39844 -0.80859,0.77344 -1.24219,1.1289 -0.42968,0.35157 -0.8789,0.6875 -1.34375,0.9961 -0.46484,0.3125 -0.9414,0.59765 -1.4375,0.86328 -0.49218,0.26172 -0.99609,0.5 -1.51172,0.71484 -0.51562,0.21485 -1.04296,0.40235 -1.57421,0.56641 -0.53516,0.16016 -1.07813,0.29687 -1.625,0.40625 -0.54688,0.10937 -1.10157,0.19141 -1.65625,0.24609 -0.55469,0.0547 -1.11329,0.082 -1.67188,0.082 -0.55859,0 -1.11328,-0.0273 -1.67187,-0.082 -0.55469,-0.0547 -1.10547,-0.13672 -1.65625,-0.24609 -0.54688,-0.10938 -1.08594,-0.24609 -1.6211,-0.40625 -0.53515,-0.16406 -1.0625,-0.35156 -1.57812,-0.56641 -0.51563,-0.21484 -1.01953,-0.45312 -1.51172,-0.71484 -0.49219,-0.26563 -0.97266,-0.55078 -1.4375,-0.86328 -0.46485,-0.3086 -0.91016,-0.64453 -1.34375,-0.9961 -0.42969,-0.35546 -0.84375,-0.73046 -1.23828,-1.1289 -0.39453,-0.39453 -0.76953,-0.8086 -1.125,-1.24219 -0.35547,-0.42969 -0.6875,-0.87891 -0.9961,-1.34375 -0.3125,-0.46875 -0.59765,-0.94531 -0.86328,-1.44141 -0.26172,-0.49218 -0.5,-0.99609 -0.71484,-1.51562 -0.21485,-0.51563 -0.40235,-1.04297 -0.5625,-1.57813 -0.16406,-0.53515 -0.29688,-1.07421 -0.40625,-1.625 -0.10938,-0.54687 -0.19141,-1.10156 -0.2461,-1.65625 -0.0547,-0.55859 -0.082,-1.11718 -0.082,-1.67578 0,-0.55859 0.0274,-1.11718 0.082,-1.67578 0.0547,-0.55469 0.13672,-1.10937 0.2461,-1.65625 0.10937,-0.55078 0.24219,-1.09375 0.40625,-1.6289 0.16015,-0.53516 0.34765,-1.0586 0.5625,-1.57813 0.21484,-0.51562 0.45312,-1.01953 0.71484,-1.51562 0.26563,-0.49219 0.55078,-0.97266 0.86328,-1.4375 0.3086,-0.46485 0.64063,-0.91407 0.9961,-1.34766 0.35547,-0.42969 0.73047,-0.84375 1.125,-1.24219 0.39453,-0.39453 0.80859,-0.76953 1.23828,-1.125 0.43359,-0.35547 0.8789,-0.6875 1.34375,-0.99609 0.46484,-0.3125 0.94531,-0.60156 1.4375,-0.86328 0.49219,-0.26563 0.99609,-0.50391 1.51172,-0.71875 0.51562,-0.21094 1.04297,-0.40235 1.57812,-0.5625 0.53516,-0.16407 1.07422,-0.29688 1.6211,-0.40625 0.55078,-0.10938 1.10156,-0.19141 1.65625,-0.2461 0.55859,-0.0547 1.11328,-0.082 1.67187,-0.082 0.55859,0 1.11719,0.0274 1.67188,0.082 0.55468,0.0547 1.10937,0.13672 1.65625,0.2461 0.54687,0.10937 1.08984,0.24218 1.625,0.40625 0.53125,0.16015 1.05859,0.35156 1.57421,0.5625 0.51563,0.21484 1.01954,0.45312 1.51172,0.71875 0.4961,0.26172 0.97266,0.55078 1.4375,0.86328 0.46485,0.30859 0.91407,0.64062 1.34375,0.99609 0.4336,0.35547 0.84766,0.73047 1.24219,1.125 0.39453,0.39844 0.76953,0.8125 1.12109,1.24219 0.35547,0.43359 0.6875,0.88281 1,1.34766 0.3086,0.46484 0.59766,0.94531 0.85938,1.4375 0.26172,0.49609 0.5,1 0.71484,1.51562 0.21485,0.51953 0.40235,1.04297 0.5625,1.57813 0.16407,0.53515 0.30078,1.07812 0.41016,1.6289 0.10547,0.54688 0.1875,1.10156 0.24219,1.65625 0.0547,0.5586 0.082,1.11719 0.082,1.67578 z m 0,0"
     fill-opacity="1"
     fill-rule="nonzero"
     id="path341" />
  <path
     fill="#ff0063"
     d="m 83.929505,80.010432 c 0,0.5586 -0.0273,1.11719 -0.082,1.67578 -0.0547,0.55469 -0.13672,1.10938 -0.24609,1.65625 -0.10547,0.55079 -0.24219,1.08985 -0.40625,1.625 -0.16016,0.53516 -0.34766,1.0625 -0.5625,1.57813 -0.21485,0.51953 -0.45313,1.02344 -0.71485,1.51562 -0.26562,0.4961 -0.55078,0.97266 -0.85937,1.44141 -0.3125,0.46484 -0.64453,0.91406 -1,1.34375 -0.35156,0.43359 -0.72656,0.84766 -1.125,1.24219 -0.39453,0.39844 -0.80469,0.77344 -1.23828,1.1289 -0.4336,0.35157 -0.87891,0.6875 -1.34375,0.9961 -0.46485,0.3125 -0.94532,0.59765 -1.4375,0.86328 -0.49219,0.26172 -0.9961,0.5 -1.51172,0.71484 -0.51563,0.21485 -1.04297,0.40235 -1.57422,0.56641 -0.53516,0.16016 -1.07813,0.29687 -1.625,0.40625 -0.54688,0.10937 -1.10156,0.19141 -1.65625,0.24609 -0.55469,0.0547 -1.11328,0.082 -1.67188,0.082 -0.55859,0 -1.11718,-0.0273 -1.67187,-0.082 -0.55469,-0.0547 -1.10938,-0.13672 -1.65625,-0.24609 -0.54688,-0.10938 -1.08984,-0.24609 -1.62109,-0.40625 -0.53516,-0.16406 -1.0625,-0.35156 -1.57813,-0.56641 -0.51562,-0.21484 -1.01953,-0.45312 -1.51172,-0.71484 -0.49219,-0.26563 -0.97265,-0.55078 -1.4375,-0.86328 -0.46484,-0.3086 -0.91015,-0.64453 -1.34375,-0.9961 -0.42969,-0.35546 -0.84375,-0.73046 -1.23828,-1.1289 -0.39844,-0.39453 -0.76953,-0.8086 -1.125,-1.24219 -0.35547,-0.42969 -0.6875,-0.87891 -0.99609,-1.34375 -0.3125,-0.46875 -0.59766,-0.94531 -0.86328,-1.44141 -0.26172,-0.49218 -0.5,-0.99609 -0.71485,-1.51562 -0.21484,-0.51563 -0.40234,-1.04297 -0.5625,-1.57813 -0.16406,-0.53515 -0.29687,-1.07421 -0.40625,-1.625 -0.10937,-0.54687 -0.1914,-1.10156 -0.24609,-1.65625 -0.0547,-0.55859 -0.082,-1.11718 -0.082,-1.67578 0,-0.55859 0.0273,-1.11718 0.082,-1.67578 0.0547,-0.55469 0.13672,-1.10937 0.24609,-1.65625 0.10938,-0.55078 0.24219,-1.09375 0.40625,-1.6289 0.16016,-0.53516 0.34766,-1.0586 0.5625,-1.57813 0.21485,-0.51562 0.45313,-1.01953 0.71485,-1.51562 0.26562,-0.49219 0.55078,-0.97266 0.86328,-1.4375 0.30859,-0.46485 0.64062,-0.91407 0.99609,-1.34766 0.35547,-0.42969 0.72656,-0.84375 1.125,-1.24219 0.39453,-0.39453 0.80859,-0.76953 1.23828,-1.125 0.4336,-0.35547 0.87891,-0.6875 1.34375,-0.99609 0.46485,-0.3125 0.94531,-0.60156 1.4375,-0.86328 0.49219,-0.26563 0.9961,-0.50391 1.51172,-0.71875 0.51563,-0.21094 1.04297,-0.40235 1.57813,-0.5625 0.53125,-0.16407 1.07421,-0.29688 1.62109,-0.40625 0.54687,-0.10938 1.10156,-0.19141 1.65625,-0.2461 0.55469,-0.0547 1.11328,-0.082 1.67187,-0.082 0.5586,0 1.11719,0.0274 1.67188,0.082 0.55469,0.0547 1.10937,0.13672 1.65625,0.2461 0.54687,0.10937 1.08984,0.24218 1.625,0.40625 0.53125,0.16015 1.05859,0.35156 1.57422,0.5625 0.51562,0.21484 1.01953,0.45312 1.51172,0.71875 0.49218,0.26172 0.97265,0.55078 1.4375,0.86328 0.46484,0.30859 0.91015,0.64062 1.34375,0.99609 0.43359,0.35547 0.84375,0.73047 1.23828,1.125 0.39844,0.39844 0.77344,0.8125 1.125,1.24219 0.35547,0.43359 0.6875,0.88281 0.99609,1.34766 0.3125,0.46484 0.59766,0.94531 0.86328,1.4375 0.26172,0.49609 0.5,1 0.71485,1.51562 0.21484,0.51953 0.40234,1.04297 0.5625,1.57813 0.16406,0.53515 0.30078,1.07812 0.40625,1.6289 0.10937,0.54688 0.1914,1.10156 0.24609,1.65625 0.0547,0.5586 0.082,1.11719 0.082,1.67578 z m 0,0"
     fill-opacity="1"
     fill-rule="nonzero"
     id="path343" />
  <path
     fill="#ff0063"
     d="m 117.13654,89.209652 c 0,0.5586 -0.0273,1.11719 -0.082,1.67188 -0.0547,0.55859 -0.13672,1.10937 -0.24609,1.66015 -0.10938,0.54688 -0.2461,1.08985 -0.40625,1.625 -0.16406,0.53516 -0.35156,1.0625 -0.56641,1.57813 -0.21094,0.51953 -0.45312,1.02344 -0.71484,1.51562 -0.26172,0.4961 -0.55078,0.97266 -0.85938,1.4375 -0.3125,0.46485 -0.64453,0.91407 -1,1.347658 -0.35156,0.43359 -0.72656,0.84766 -1.12109,1.24219 -0.39453,0.39453 -0.80859,0.76953 -1.24219,1.125 -0.42969,0.35547 -0.8789,0.6875 -1.34375,1 -0.46484,0.3125 -0.9414,0.59765 -1.43359,0.86328 -0.4961,0.26172 -1,0.5 -1.51563,0.71484 -0.51562,0.21485 -1.03906,0.40235 -1.57422,0.56641 -0.53515,0.16015 -1.07812,0.29687 -1.625,0.40625 -0.54687,0.10937 -1.09765,0.1914 -1.65625,0.24609 -0.55468,0.0547 -1.11328,0.082 -1.67187,0.082 -0.558595,0 -1.113285,-0.0273 -1.671885,-0.082 -0.55468,-0.0547 -1.10546,-0.13672 -1.65625,-0.24609 -0.54687,-0.10938 -1.08593,-0.2461 -1.62109,-0.40625 -0.53516,-0.16406 -1.0625,-0.35156 -1.57812,-0.56641 -0.51563,-0.21484 -1.01954,-0.45312 -1.51172,-0.71484 -0.49219,-0.26563 -0.97266,-0.55078 -1.4375,-0.86328 -0.46094,-0.3125 -0.91016,-0.64453 -1.34375,-1 -0.42969,-0.35547 -0.84375,-0.73047 -1.23828,-1.125 -0.39454,-0.39453 -0.76954,-0.8086 -1.125,-1.24219 -0.35547,-0.433588 -0.6875,-0.882808 -0.9961,-1.347658 -0.3125,-0.46484 -0.59765,-0.9414 -0.85937,-1.4375 -0.26563,-0.49218 -0.50391,-0.99609 -0.71875,-1.51562 -0.21094,-0.51563 -0.40235,-1.04297 -0.5625,-1.57813 -0.16407,-0.53515 -0.29688,-1.07812 -0.40625,-1.625 -0.10938,-0.55078 -0.19141,-1.10156 -0.2461,-1.66015 -0.0547,-0.55469 -0.082,-1.11328 -0.082,-1.67188 0,-0.5625 0.0274,-1.11719 0.082,-1.67578 0.0547,-0.55859 0.13672,-1.10937 0.2461,-1.66016 0.10937,-0.54687 0.24218,-1.08984 0.40625,-1.625 0.16015,-0.53515 0.35156,-1.0625 0.5625,-1.57812 0.21484,-0.51563 0.45312,-1.02344 0.71875,-1.51563 0.26172,-0.49218 0.54687,-0.97265 0.85937,-1.4375 0.3086,-0.46484 0.64063,-0.91406 0.9961,-1.34765 0.35546,-0.42969 0.73046,-0.84375 1.125,-1.24219 0.39453,-0.39453 0.80859,-0.76953 1.23828,-1.125 0.43359,-0.35547 0.88281,-0.6875 1.34375,-1 0.46484,-0.30859 0.94531,-0.59766 1.4375,-0.85937 0.49218,-0.26563 0.99609,-0.50391 1.51172,-0.71875 0.51562,-0.21485 1.04296,-0.40235 1.57812,-0.5625 0.53516,-0.16407 1.07422,-0.30079 1.62109,-0.41016 0.55079,-0.10938 1.10157,-0.19141 1.65625,-0.24609 0.5586,-0.0547 1.11329,-0.082 1.671885,-0.082 0.55859,0 1.11719,0.0274 1.67187,0.082 0.5586,0.0547 1.10938,0.13671 1.65625,0.24609 0.54688,0.10937 1.08985,0.24609 1.625,0.41016 0.53516,0.16015 1.0586,0.34765 1.57422,0.5625 0.51563,0.21484 1.01953,0.45312 1.51563,0.71875 0.49219,0.26171 0.96875,0.55078 1.43359,0.85937 0.46485,0.3125 0.91406,0.64453 1.34375,1 0.4336,0.35547 0.84766,0.73047 1.24219,1.125 0.39453,0.39844 0.76953,0.8125 1.12109,1.24219 0.35547,0.43359 0.6875,0.88281 1,1.34765 0.3086,0.46485 0.59766,0.94532 0.85938,1.4375 0.26172,0.49219 0.5039,1 0.71484,1.51563 0.21485,0.51562 0.40235,1.04297 0.56641,1.57812 0.16015,0.53516 0.29687,1.07813 0.40625,1.625 0.10937,0.55079 0.1914,1.10157 0.24609,1.66016 0.0547,0.55859 0.082,1.11328 0.082,1.67578 z m 0,0"
     fill-opacity="1"
     fill-rule="nonzero"
     id="path345" />
  <g
     clip-path="url(#id8)"
     id="g349"
     transform="translate(-567.8283,-339.98566)">
    <path
       fill="#ff0063"
       d="m 822.16016,422.82422 c -0.33594,0 -0.66407,-0.0586 -0.98047,-0.17578 -0.31641,-0.1211 -0.60157,-0.28907 -0.85547,-0.50782 -0.25781,-0.22265 -0.46485,-0.48046 -0.62891,-0.77343 -0.16406,-0.29688 -0.26953,-0.61328 -0.32031,-0.94532 -0.0508,-0.33593 -0.043,-0.66796 0.0234,-1 0.0703,-0.32812 0.19531,-0.63671 0.37109,-0.92578 0.17969,-0.28515 0.40234,-0.53125 0.66797,-0.73828 0.26953,-0.20703 0.5625,-0.35937 0.88672,-0.46094 12.78906,-3.99609 45.89062,-17.67578 45.43359,-32.73828 -0.18359,-5.83593 -5.42187,-11.80468 -15.58203,-17.73437 -12.6875,-7.40625 -32.90234,-14.54688 -60.07812,-21.25781 -0.35938,-0.0937 -0.6836,-0.25391 -0.97657,-0.48047 -0.29297,-0.22266 -0.53515,-0.49219 -0.72265,-0.8125 -0.1875,-0.32032 -0.3086,-0.66016 -0.36328,-1.02735 -0.0547,-0.36718 -0.0352,-0.72656 0.0547,-1.08593 0.0859,-0.35938 0.23828,-0.69141 0.45703,-0.98829 0.21875,-0.30078 0.48438,-0.54687 0.79688,-0.74218 0.3125,-0.19532 0.65234,-0.32032 1.01562,-0.38282 0.36719,-0.0625 0.72657,-0.0508 1.08985,0.0274 53.29297,13.14453 79.44531,27.62109 79.95312,44.32422 0.29297,9.67968 -8.10937,19.11328 -24.97656,28.03515 -7.85937,4.09375 -16.00391,7.51563 -24.42578,10.26563 -0.27344,0.082 -0.55078,0.125 -0.83984,0.125 z m 0,0"
       fill-opacity="1"
       fill-rule="nonzero"
       id="path347" />
  </g>
  <g
     clip-path="url(#id9)"
     id="g353"
     transform="translate(-567.8283,-339.98566)">
    <path
       fill="#ff0063"
       d="m 618.07422,422.82422 c -0.28516,0 -0.56641,-0.043 -0.84375,-0.125 -8.42188,-2.75 -16.5586,-6.17188 -24.41797,-10.26563 -16.86719,-8.92187 -25.27344,-18.35547 -24.97656,-28.03515 0.50781,-16.70313 26.66015,-31.17969 79.95312,-44.31641 0.36719,-0.0977 0.73828,-0.12109 1.11328,-0.0703 0.37891,0.0508 0.73047,0.17187 1.05469,0.36719 0.32813,0.1914 0.60547,0.4414 0.83203,0.74609 0.22656,0.30469 0.38672,0.64453 0.47656,1.01172 0.0898,0.37109 0.10547,0.74219 0.0469,1.11719 -0.0586,0.3789 -0.1875,0.72656 -0.38672,1.05078 -0.19922,0.32422 -0.45703,0.59375 -0.76562,0.8164 -0.3086,0.21875 -0.64844,0.3711 -1.01954,0.45313 -27.17578,6.69922 -47.39062,13.85156 -60.08203,21.26172 -10.14843,5.92578 -15.39453,11.89453 -15.57812,17.73047 -0.46094,15.05468 32.64453,28.73437 45.43359,32.73828 0.32031,0.10156 0.61719,0.2539 0.88281,0.46093 0.26563,0.20704 0.49219,0.45313 0.66797,0.73829 0.17969,0.28906 0.30469,0.59765 0.3711,0.92578 0.0703,0.33203 0.0781,0.66406 0.0273,1 -0.0508,0.33203 -0.16016,0.64843 -0.32031,0.94531 -0.16406,0.29297 -0.375,0.55078 -0.62891,0.77344 -0.25781,0.21875 -0.54297,0.39062 -0.85937,0.50781 -0.31641,0.11719 -0.64063,0.17578 -0.98047,0.17578 z m 0,0"
       fill-opacity="1"
       fill-rule="nonzero"
       id="path351" />
  </g>
  <g
     fill="#000000"
     fill-opacity="0.4"
     id="g361"
     transform="translate(-567.8283,-339.98566)">
    <g
       transform="translate(608.15734,392.9661)"
       id="g359">
      <g
         id="g357">
        <path
           d="m 12.273438,-26.996094 c -6.410157,0 -9.574219,0.761719 -9.574219,0.761719 0,0 0.253906,0.632813 0.253906,2.234375 v 22.398438 c 0,1.433593 0.886719,1.9375 2.53125,1.9375 1.265625,0 1.898437,-0.3789068 1.898437,-0.3789068 0,0 -0.253906,-0.4218752 -0.253906,-1.8984372 v -8.394532 c 1.476563,0.253907 3.585938,0.507813 5.863282,0.507813 6.664062,0 9.871093,-3.035156 9.871093,-8.730469 0,-5.484375 -3.121093,-8.4375 -10.589843,-8.4375 z M 11.9375,-12.949219 c -1.855469,0 -3.710938,-0.296875 -4.808594,-0.507812 V -23.621094 C 8.308594,-23.746094 10.125,-23.875 12.0625,-23.875 c 4.515625,0 6.625,1.605469 6.625,5.316406 0,3.542969 -1.898438,5.609375 -6.75,5.609375 z m 0,0"
           id="path355" />
      </g>
    </g>
  </g>
  <g
     fill="#000000"
     fill-opacity="0.4"
     id="g375"
     transform="translate(-567.8283,-339.98566)">
    <g
       transform="translate(643.83804,392.9661)"
       id="g373">
      <g
         id="g371">
        <path
           d="m 22.398438,-3.839844 c 0,0 -1.265626,0.71875 -4.894532,0.71875 h -10.25 v -8.730468 h 10.292969 c 1.097656,0 1.601563,-0.71875 1.601563,-1.941407 0,-0.800781 -0.25,-1.011719 -0.25,-1.011719 H 7.253906 v -8.730468 h 13.921875 c 1.222657,0 1.769531,-0.675782 1.769531,-1.941406 0,-1.054688 -0.253906,-1.433594 -0.253906,-1.433594 0,0 -0.671875,0.292968 -1.898437,0.292968 H 2.699219 c 0,0 0.378906,1.097657 0.378906,2.742188 V -2.445312 C 3.078125,-0.886719 3.878906,0 5.566406,0 H 20.625 c 1.476562,0 2.320312,-0.675781 2.320312,-2.234375 0,-1.140625 -0.546874,-1.605469 -0.546874,-1.605469 z m 0,0"
           id="path369" />
      </g>
    </g>
  </g>
  <g
     fill="#000000"
     fill-opacity="0.4"
     id="g389"
     transform="translate(-567.8283,-339.98566)">
    <g
       transform="translate(680.15138,392.9661)"
       id="g387">
      <g
         id="g385">
        <path
           d="m 20.371094,-8.4375 c -0.882813,-1.558594 -1.9375,-2.488281 -3.203125,-3.035156 3.796875,-0.886719 5.652343,-3.289063 5.652343,-7.425782 0,-5.3125 -3.121093,-8.097656 -10.589843,-8.097656 -6.367188,0 -9.53125,0.761719 -9.53125,0.761719 0,0 0.253906,0.671875 0.253906,2.234375 v 22.4375 c 0,1.394531 0.886719,1.898438 2.574219,1.898438 1.222656,0 1.855468,-0.3789068 1.855468,-0.3789068 0,0 -0.253906,-0.4218752 -0.253906,-1.8984372 V -10.25 h 3.035156 c 2.910157,0 4.808594,0.675781 6.203126,2.996094 l 3.582031,6.285156 c 0.507812,0.84375 1.519531,1.304688 3.082031,1.304688 1.898438,0 2.65625,-0.3789068 2.65625,-0.3789068 0,0 -0.757812,-0.5039062 -1.476562,-1.7695312 z m -1.726563,-10.121094 c 0,3.542969 -1.941406,5.230469 -6.664062,5.230469 H 7.128906 v -10.25 c 1.222656,-0.128906 2.953125,-0.296875 4.890625,-0.296875 4.515625,0 6.625,1.605469 6.625,5.316406 z m 0,0"
           id="path383" />
      </g>
    </g>
  </g>
  <g
     fill="#000000"
     fill-opacity="0.4"
     id="g403"
     transform="translate(-567.8283,-339.98566)">
    <g
       transform="translate(717.13953,392.9661)"
       id="g401">
      <g
         id="g399">
        <path
           d="m 22.3125,-3.585938 c 0,0 -1.097656,0.464844 -4.597656,0.464844 H 7.128906 v -21.933594 c 0,-1.390624 -0.886718,-1.941406 -2.53125,-1.941406 -1.222656,0 -1.898437,0.421875 -1.898437,0.421875 0,0 0.253906,0.378907 0.253906,1.855469 V -1.8125 C 2.953125,-0.71875 3.5,0 4.765625,0 h 15.945313 c 1.390624,0 2.152343,-0.589844 2.152343,-1.984375 0,-1.136719 -0.550781,-1.601563 -0.550781,-1.601563 z m 0,0"
           id="path397" />
      </g>
    </g>
  </g>
  <g
     fill="#000000"
     fill-opacity="0.4"
     id="g417"
     transform="translate(-567.8283,-339.98566)">
    <g
       transform="translate(751.76584,392.9661)"
       id="g415">
      <g
         id="g413">
        <path
           d="m 5.484375,0.335938 c 1.265625,0 1.898437,-0.3789068 1.898437,-0.3789068 0,0 -0.253906,-0.4218752 -0.253906,-1.8984372 v -23.113282 c 0,-1.390624 -0.886718,-1.941406 -2.53125,-1.941406 -1.265625,0 -1.898437,0.421875 -1.898437,0.421875 0,0 0.253906,0.378907 0.253906,1.855469 v 23.117188 c 0,1.433593 0.886719,1.9375 2.53125,1.9375 z m 0,0"
           id="path411" />
      </g>
    </g>
  </g>
  <g
     fill="#000000"
     fill-opacity="0.4"
     id="g431"
     transform="translate(-567.8283,-339.98566)">
    <g
       transform="translate(773.19113,392.9661)"
       id="g429">
      <g
         id="g427">
        <path
           d="m 24.71875,-25.054688 c 0,-1.351562 -0.84375,-1.941406 -2.53125,-1.941406 -1.265625,0 -1.898438,0.421875 -1.898438,0.421875 0,0 0.253907,0.378907 0.253907,1.855469 V -6.410156 L 6.875,-26.109375 c -0.421875,-0.632813 -1.097656,-0.886719 -2.277344,-0.886719 -1.265625,0 -1.898437,0.421875 -1.898437,0.421875 0,0 0.253906,0.378907 0.253906,1.855469 V -1.5625 c 0,1.394531 0.886719,1.898438 2.53125,1.898438 1.265625,0 1.898437,-0.3789068 1.898437,-0.3789068 0,0 -0.253906,-0.4218752 -0.253906,-1.8984372 v -18.304688 l 13.707032,19.699219 c 0.378906,0.6328125 1.097656,0.882813 2.277343,0.882813 1.222657,0 1.898438,-0.3789068 1.898438,-0.3789068 0,0 -0.292969,-0.4218752 -0.292969,-1.8984372 z m 0,0"
           id="path425" />
      </g>
    </g>
  </g>
  <g
     fill="#000000"
     fill-opacity="0.4"
     id="g445"
     transform="translate(-567.8283,-339.98566)">
    <g
       transform="translate(812.24589,392.9661)"
       id="g443">
      <g
         id="g441">
        <path
           d="m 22.398438,-3.839844 c 0,0 -1.265626,0.71875 -4.894532,0.71875 h -10.25 v -8.730468 h 10.292969 c 1.097656,0 1.601563,-0.71875 1.601563,-1.941407 0,-0.800781 -0.25,-1.011719 -0.25,-1.011719 H 7.253906 v -8.730468 h 13.921875 c 1.222657,0 1.769531,-0.675782 1.769531,-1.941406 0,-1.054688 -0.253906,-1.433594 -0.253906,-1.433594 0,0 -0.671875,0.292968 -1.898437,0.292968 H 2.699219 c 0,0 0.378906,1.097657 0.378906,2.742188 V -2.445312 C 3.078125,-0.886719 3.878906,0 5.566406,0 H 20.625 c 1.476562,0 2.320312,-0.675781 2.320312,-2.234375 0,-1.140625 -0.546874,-1.605469 -0.546874,-1.605469 z m 0,0"
           id="path439" />
      </g>
    </g>
  </g>
  <g
     fill="#000000"
     fill-opacity="1"
     id="g453"
     transform="translate(-567.8283,-339.98566)">
    <g
       transform="translate(605.47263,390.28143)"
       id="g451">
      <g
         id="g449">
        <path
           d="m 12.273438,-26.996094 c -6.410157,0 -9.574219,0.761719 -9.574219,0.761719 0,0 0.253906,0.632813 0.253906,2.234375 v 22.398438 c 0,1.433593 0.886719,1.9375 2.53125,1.9375 1.265625,0 1.898437,-0.3789068 1.898437,-0.3789068 0,0 -0.253906,-0.4218752 -0.253906,-1.8984372 v -8.394532 c 1.476563,0.253907 3.585938,0.507813 5.863282,0.507813 6.664062,0 9.871093,-3.035156 9.871093,-8.730469 0,-5.484375 -3.121093,-8.4375 -10.589843,-8.4375 z M 11.9375,-12.949219 c -1.855469,0 -3.710938,-0.296875 -4.808594,-0.507812 V -23.621094 C 8.308594,-23.746094 10.125,-23.875 12.0625,-23.875 c 4.515625,0 6.625,1.605469 6.625,5.316406 0,3.542969 -1.898438,5.609375 -6.75,5.609375 z m 0,0"
           id="path447" />
      </g>
    </g>
  </g>
  <g
     fill="#000000"
     fill-opacity="1"
     id="g467"
     transform="translate(-567.8283,-339.98566)">
    <g
       transform="translate(641.15333,390.28143)"
       id="g465">
      <g
         id="g463">
        <path
           d="m 22.398438,-3.839844 c 0,0 -1.265626,0.71875 -4.894532,0.71875 h -10.25 v -8.730468 h 10.292969 c 1.097656,0 1.601563,-0.71875 1.601563,-1.941407 0,-0.800781 -0.25,-1.011719 -0.25,-1.011719 H 7.253906 v -8.730468 h 13.921875 c 1.222657,0 1.769531,-0.675782 1.769531,-1.941406 0,-1.054688 -0.253906,-1.433594 -0.253906,-1.433594 0,0 -0.671875,0.292968 -1.898437,0.292968 H 2.699219 c 0,0 0.378906,1.097657 0.378906,2.742188 V -2.445312 C 3.078125,-0.886719 3.878906,0 5.566406,0 H 20.625 c 1.476562,0 2.320312,-0.675781 2.320312,-2.234375 0,-1.140625 -0.546874,-1.605469 -0.546874,-1.605469 z m 0,0"
           id="path461" />
      </g>
    </g>
  </g>
  <g
     fill="#000000"
     fill-opacity="1"
     id="g481"
     transform="translate(-567.8283,-339.98566)">
    <g
       transform="translate(677.46667,390.28143)"
       id="g479">
      <g
         id="g477">
        <path
           d="m 20.371094,-8.4375 c -0.882813,-1.558594 -1.9375,-2.488281 -3.203125,-3.035156 3.796875,-0.886719 5.652343,-3.289063 5.652343,-7.425782 0,-5.3125 -3.121093,-8.097656 -10.589843,-8.097656 -6.367188,0 -9.53125,0.761719 -9.53125,0.761719 0,0 0.253906,0.671875 0.253906,2.234375 v 22.4375 c 0,1.394531 0.886719,1.898438 2.574219,1.898438 1.222656,0 1.855468,-0.3789068 1.855468,-0.3789068 0,0 -0.253906,-0.4218752 -0.253906,-1.8984372 V -10.25 h 3.035156 c 2.910157,0 4.808594,0.675781 6.203126,2.996094 l 3.582031,6.285156 c 0.507812,0.84375 1.519531,1.304688 3.082031,1.304688 1.898438,0 2.65625,-0.3789068 2.65625,-0.3789068 0,0 -0.757812,-0.5039062 -1.476562,-1.7695312 z m -1.726563,-10.121094 c 0,3.542969 -1.941406,5.230469 -6.664062,5.230469 H 7.128906 v -10.25 c 1.222656,-0.128906 2.953125,-0.296875 4.890625,-0.296875 4.515625,0 6.625,1.605469 6.625,5.316406 z m 0,0"
           id="path475" />
      </g>
    </g>
  </g>
  <g
     fill="#000000"
     fill-opacity="1"
     id="g495"
     transform="translate(-567.8283,-339.98566)">
    <g
       transform="translate(714.45482,390.28143)"
       id="g493">
      <g
         id="g491">
        <path
           d="m 22.3125,-3.585938 c 0,0 -1.097656,0.464844 -4.597656,0.464844 H 7.128906 v -21.933594 c 0,-1.390624 -0.886718,-1.941406 -2.53125,-1.941406 -1.222656,0 -1.898437,0.421875 -1.898437,0.421875 0,0 0.253906,0.378907 0.253906,1.855469 V -1.8125 C 2.953125,-0.71875 3.5,0 4.765625,0 h 15.945313 c 1.390624,0 2.152343,-0.589844 2.152343,-1.984375 0,-1.136719 -0.550781,-1.601563 -0.550781,-1.601563 z m 0,0"
           id="path489" />
      </g>
    </g>
  </g>
  <g
     fill="#000000"
     fill-opacity="1"
     id="g509"
     transform="translate(-567.8283,-339.98566)">
    <g
       transform="translate(749.08112,390.28143)"
       id="g507">
      <g
         id="g505">
        <path
           d="m 5.484375,0.335938 c 1.265625,0 1.898437,-0.3789068 1.898437,-0.3789068 0,0 -0.253906,-0.4218752 -0.253906,-1.8984372 v -23.113282 c 0,-1.390624 -0.886718,-1.941406 -2.53125,-1.941406 -1.265625,0 -1.898437,0.421875 -1.898437,0.421875 0,0 0.253906,0.378907 0.253906,1.855469 v 23.117188 c 0,1.433593 0.886719,1.9375 2.53125,1.9375 z m 0,0"
           id="path503" />
      </g>
    </g>
  </g>
  <g
     fill="#000000"
     fill-opacity="1"
     id="g523"
     transform="translate(-567.8283,-339.98566)">
    <g
       transform="translate(770.50642,390.28143)"
       id="g521">
      <g
         id="g519">
        <path
           d="m 24.71875,-25.054688 c 0,-1.351562 -0.84375,-1.941406 -2.53125,-1.941406 -1.265625,0 -1.898438,0.421875 -1.898438,0.421875 0,0 0.253907,0.378907 0.253907,1.855469 V -6.410156 L 6.875,-26.109375 c -0.421875,-0.632813 -1.097656,-0.886719 -2.277344,-0.886719 -1.265625,0 -1.898437,0.421875 -1.898437,0.421875 0,0 0.253906,0.378907 0.253906,1.855469 V -1.5625 c 0,1.394531 0.886719,1.898438 2.53125,1.898438 1.265625,0 1.898437,-0.3789068 1.898437,-0.3789068 0,0 -0.253906,-0.4218752 -0.253906,-1.8984372 v -18.304688 l 13.707032,19.699219 c 0.378906,0.6328125 1.097656,0.882813 2.277343,0.882813 1.222657,0 1.898438,-0.3789068 1.898438,-0.3789068 0,0 -0.292969,-0.4218752 -0.292969,-1.8984372 z m 0,0"
           id="path517" />
      </g>
    </g>
  </g>
  <g
     fill="#000000"
     fill-opacity="1"
     id="g537"
     transform="translate(-567.8283,-339.98566)">
    <g
       transform="translate(809.56118,390.28143)"
       id="g535">
      <g
         id="g533">
        <path
           d="m 22.398438,-3.839844 c 0,0 -1.265626,0.71875 -4.894532,0.71875 h -10.25 v -8.730468 h 10.292969 c 1.097656,0 1.601563,-0.71875 1.601563,-1.941407 0,-0.800781 -0.25,-1.011719 -0.25,-1.011719 H 7.253906 v -8.730468 h 13.921875 c 1.222657,0 1.769531,-0.675782 1.769531,-1.941406 0,-1.054688 -0.253906,-1.433594 -0.253906,-1.433594 0,0 -0.671875,0.292968 -1.898437,0.292968 H 2.699219 c 0,0 0.378906,1.097657 0.378906,2.742188 V -2.445312 C 3.078125,-0.886719 3.878906,0 5.566406,0 H 20.625 c 1.476562,0 2.320312,-0.675781 2.320312,-2.234375 0,-1.140625 -0.546874,-1.605469 -0.546874,-1.605469 z m 0,0"
           id="path531" />
      </g>
    </g>
  </g>
</svg>
